<?xml version="1.0" encoding="utf-8" standalone="no"?>
<!DOCTYPE svg PUBLIC "-//W3C//DTD SVG 1.1//EN"
  "http://www.w3.org/Graphics/SVG/1.1/DTD/svg11.dtd">
<svg xmlns:xlink="http://www.w3.org/1999/xlink" width="403.2pt" height="316.8pt" viewBox="0 0 403.2 316.8" xmlns="http://www.w3.org/2000/svg" version="1.1">
 <metadata>
  <rdf:RDF xmlns:dc="http://purl.org/dc/elements/1.1/" xmlns:cc="http://creativecommons.org/ns#" xmlns:rdf="http://www.w3.org/1999/02/22-rdf-syntax-ns#">
   <cc:Work>
    <dc:type rdf:resource="http://purl.org/dc/dcmitype/StillImage"/>
    
    <dc:format>image/svg+xml</dc:format>
    <dc:creator>
     <cc:Agent>
      <dc:title>Matplotlib v3.10.9, https://matplotlib.org/</dc:title>
     </cc:Agent>
    </dc:creator>
   </cc:Work>
  </rdf:RDF>
 </metadata>
 <defs>
  <style type="text/css">*{stroke-linejoin: round; stroke-linecap: butt}</style>
 </defs>
 <g id="figure_1">
  <g id="patch_1">
   <path d="M 0 316.8 
L 403.2 316.8 
L 403.2 0 
L 0 0 
L 0 316.8 
z
" style="fill: none; opacity: 0"/>
  </g>
  <g id="axes_1">
   <g id="patch_2">
    <path d="M 58.4158 274.48 
L 369.2158 274.48 
L 369.2158 15.48 
L 58.4158 15.48 
L 58.4158 274.48 
z
" style="fill: none"/>
   </g>
   <g id="patch_3">
    <path d="M 172.3758 15.48 
L 110.2158 15.48 
L 187.9158 93.18 
z
" clip-path="url(#pc8a9c3e1a1)" style="fill: #d5d9e0"/>
   </g>
   <g id="matplotlib.axis_1">
    <g id="xtick_1">
     <g id="line2d_1">
      <defs>
       <path id="mf1f7d2a840" d="M 0 0 
L 0 3.5 
" style="stroke: #5d574d; stroke-width: 0.8"/>
      </defs>
      <g>
       <use xlink:href="#mf1f7d2a840" x="58.4158" y="274.48" style="fill: #5d574d; stroke: #5d574d; stroke-width: 0.8"/>
      </g>
     </g>
     <g id="text_1">
      <text style="font-size: 9px; font-family: 'Source Sans 3','Source Sans Pro','Helvetica Neue',Arial,sans-serif; text-anchor: middle; fill: #5d574d" x="58.4158" y="288.318594" transform="rotate(-0 58.4158 288.318594)">−4</text>
     </g>
    </g>
    <g id="xtick_2">
     <g id="line2d_2">
      <g>
       <use xlink:href="#mf1f7d2a840" x="110.2158" y="274.48" style="fill: #5d574d; stroke: #5d574d; stroke-width: 0.8"/>
      </g>
     </g>
     <g id="text_2">
      <text style="font-size: 9px; font-family: 'Source Sans 3','Source Sans Pro','Helvetica Neue',Arial,sans-serif; text-anchor: middle; fill: #5d574d" x="110.2158" y="288.318594" transform="rotate(-0 110.2158 288.318594)">−3</text>
     </g>
    </g>
    <g id="xtick_3">
     <g id="line2d_3">
      <g>
       <use xlink:href="#mf1f7d2a840" x="162.0158" y="274.48" style="fill: #5d574d; stroke: #5d574d; stroke-width: 0.8"/>
      </g>
     </g>
     <g id="text_3">
      <text style="font-size: 9px; font-family: 'Source Sans 3','Source Sans Pro','Helvetica Neue',Arial,sans-serif; text-anchor: middle; fill: #5d574d" x="162.0158" y="288.318594" transform="rotate(-0 162.0158 288.318594)">−2</text>
     </g>
    </g>
    <g id="xtick_4">
     <g id="line2d_4">
      <g>
       <use xlink:href="#mf1f7d2a840" x="213.8158" y="274.48" style="fill: #5d574d; stroke: #5d574d; stroke-width: 0.8"/>
      </g>
     </g>
     <g id="text_4">
      <text style="font-size: 9px; font-family: 'Source Sans 3','Source Sans Pro','Helvetica Neue',Arial,sans-serif; text-anchor: middle; fill: #5d574d" x="213.8158" y="288.318594" transform="rotate(-0 213.8158 288.318594)">−1</text>
     </g>
    </g>
    <g id="xtick_5">
     <g id="line2d_5">
      <g>
       <use xlink:href="#mf1f7d2a840" x="265.6158" y="274.48" style="fill: #5d574d; stroke: #5d574d; stroke-width: 0.8"/>
      </g>
     </g>
     <g id="text_5">
      <text style="font-size: 9px; font-family: 'Source Sans 3','Source Sans Pro','Helvetica Neue',Arial,sans-serif; text-anchor: middle; fill: #5d574d" x="265.6158" y="288.318594" transform="rotate(-0 265.6158 288.318594)">0</text>
     </g>
    </g>
    <g id="xtick_6">
     <g id="line2d_6">
      <g>
       <use xlink:href="#mf1f7d2a840" x="317.4158" y="274.48" style="fill: #5d574d; stroke: #5d574d; stroke-width: 0.8"/>
      </g>
     </g>
     <g id="text_6">
      <text style="font-size: 9px; font-family: 'Source Sans 3','Source Sans Pro','Helvetica Neue',Arial,sans-serif; text-anchor: middle; fill: #5d574d" x="317.4158" y="288.318594" transform="rotate(-0 317.4158 288.318594)">1</text>
     </g>
    </g>
    <g id="xtick_7">
     <g id="line2d_7">
      <g>
       <use xlink:href="#mf1f7d2a840" x="369.2158" y="274.48" style="fill: #5d574d; stroke: #5d574d; stroke-width: 0.8"/>
      </g>
     </g>
     <g id="text_7">
      <text style="font-size: 9px; font-family: 'Source Sans 3','Source Sans Pro','Helvetica Neue',Arial,sans-serif; text-anchor: middle; fill: #5d574d" x="369.2158" y="288.318594" transform="rotate(-0 369.2158 288.318594)">2</text>
     </g>
    </g>
    <g id="text_8">
     <text style="font-size: 10px; font-family: 'Source Sans 3','Source Sans Pro','Helvetica Neue',Arial,sans-serif; text-anchor: middle; fill: #5d574d" x="213.8158" y="301.78875" transform="rotate(-0 213.8158 301.78875)">a₀</text>
    </g>
   </g>
   <g id="matplotlib.axis_2">
    <g id="ytick_1">
     <g id="line2d_8">
      <defs>
       <path id="m516be90882" d="M 0 0 
L -3.5 0 
" style="stroke: #5d574d; stroke-width: 0.8"/>
      </defs>
      <g>
       <use xlink:href="#m516be90882" x="58.4158" y="274.48" style="fill: #5d574d; stroke: #5d574d; stroke-width: 0.8"/>
      </g>
     </g>
     <g id="text_9">
      <text style="font-size: 9px; font-family: 'Source Sans 3','Source Sans Pro','Helvetica Neue',Arial,sans-serif; text-anchor: end; fill: #5d574d" x="51.4158" y="277.899297" transform="rotate(-0 51.4158 277.899297)">−1</text>
     </g>
    </g>
    <g id="ytick_2">
     <g id="line2d_9">
      <g>
       <use xlink:href="#m516be90882" x="58.4158" y="222.68" style="fill: #5d574d; stroke: #5d574d; stroke-width: 0.8"/>
      </g>
     </g>
     <g id="text_10">
      <text style="font-size: 9px; font-family: 'Source Sans 3','Source Sans Pro','Helvetica Neue',Arial,sans-serif; text-anchor: end; fill: #5d574d" x="51.4158" y="226.099297" transform="rotate(-0 51.4158 226.099297)">0</text>
     </g>
    </g>
    <g id="ytick_3">
     <g id="line2d_10">
      <g>
       <use xlink:href="#m516be90882" x="58.4158" y="170.88" style="fill: #5d574d; stroke: #5d574d; stroke-width: 0.8"/>
      </g>
     </g>
     <g id="text_11">
      <text style="font-size: 9px; font-family: 'Source Sans 3','Source Sans Pro','Helvetica Neue',Arial,sans-serif; text-anchor: end; fill: #5d574d" x="51.4158" y="174.299297" transform="rotate(-0 51.4158 174.299297)">1</text>
     </g>
    </g>
    <g id="ytick_4">
     <g id="line2d_11">
      <g>
       <use xlink:href="#m516be90882" x="58.4158" y="119.08" style="fill: #5d574d; stroke: #5d574d; stroke-width: 0.8"/>
      </g>
     </g>
     <g id="text_12">
      <text style="font-size: 9px; font-family: 'Source Sans 3','Source Sans Pro','Helvetica Neue',Arial,sans-serif; text-anchor: end; fill: #5d574d" x="51.4158" y="122.499297" transform="rotate(-0 51.4158 122.499297)">2</text>
     </g>
    </g>
    <g id="ytick_5">
     <g id="line2d_12">
      <g>
       <use xlink:href="#m516be90882" x="58.4158" y="67.28" style="fill: #5d574d; stroke: #5d574d; stroke-width: 0.8"/>
      </g>
     </g>
     <g id="text_13">
      <text style="font-size: 9px; font-family: 'Source Sans 3','Source Sans Pro','Helvetica Neue',Arial,sans-serif; text-anchor: end; fill: #5d574d" x="51.4158" y="70.699297" transform="rotate(-0 51.4158 70.699297)">3</text>
     </g>
    </g>
    <g id="ytick_6">
     <g id="line2d_13">
      <g>
       <use xlink:href="#m516be90882" x="58.4158" y="15.48" style="fill: #5d574d; stroke: #5d574d; stroke-width: 0.8"/>
      </g>
     </g>
     <g id="text_14">
      <text style="font-size: 9px; font-family: 'Source Sans 3','Source Sans Pro','Helvetica Neue',Arial,sans-serif; text-anchor: end; fill: #5d574d" x="51.4158" y="18.899297" transform="rotate(-0 51.4158 18.899297)">4</text>
     </g>
    </g>
    <g id="text_15">
     <text style="font-size: 10px; font-family: 'Source Sans 3','Source Sans Pro','Helvetica Neue',Arial,sans-serif; text-anchor: middle; fill: #5d574d" x="32.068144" y="144.98" transform="rotate(-90 32.068144 144.98)">a₁</text>
    </g>
   </g>
   <g id="line2d_14">
    <path d="M 110.2158 15.48 
L 369.2158 274.48 
" clip-path="url(#pc8a9c3e1a1)" style="fill: none; stroke: #1f2e4a; stroke-linecap: square"/>
   </g>
   <g id="line2d_15">
    <path d="M 58.4158 119.08 
L 369.2158 243.4 
" clip-path="url(#pc8a9c3e1a1)" style="fill: none; stroke: #1f2e4a; stroke-linecap: square"/>
   </g>
   <g id="line2d_16">
    <path d="M 136.1158 274.48 
L 369.2158 119.08 
" clip-path="url(#pc8a9c3e1a1)" style="fill: none; stroke: #8a6a3a; stroke-linecap: square"/>
   </g>
   <g id="line2d_17">
    <path d="M 172.3758 15.48 
L 224.1758 274.48 
" clip-path="url(#pc8a9c3e1a1)" style="fill: none; stroke: #8a6a3a; stroke-linecap: square"/>
   </g>
   <g id="line2d_18">
    <path d="M 58.4158 222.68 
L 369.2158 222.68 
" clip-path="url(#pc8a9c3e1a1)" style="fill: none; stroke: #5d574d; stroke-width: 0.6; stroke-linecap: square"/>
   </g>
   <g id="line2d_19">
    <path d="M 265.6158 274.48 
L 265.6158 15.48 
" clip-path="url(#pc8a9c3e1a1)" style="fill: none; stroke: #5d574d; stroke-width: 0.6; stroke-linecap: square"/>
   </g>
   <g id="patch_4">
    <path d="M 58.4158 274.48 
L 58.4158 15.48 
" style="fill: none; stroke: #b9ad96; stroke-width: 0.8; stroke-linejoin: miter; stroke-linecap: square"/>
   </g>
   <g id="patch_5">
    <path d="M 58.4158 274.48 
L 369.2158 274.48 
" style="fill: none; stroke: #b9ad96; stroke-width: 0.8; stroke-linejoin: miter; stroke-linecap: square"/>
   </g>
   <g id="line2d_20">
    <path d="M 317.4158 248.58 
L 323.8908 242.105 
L 326.793386 234.848534 
L 306.604096 204.564599 
L 260.252473 213.834923 
L 272.332035 201.755361 
L 268.158301 195.494758 
L 239.418133 201.242792 
L 253.558248 187.102677 
L 231.030405 191.608246 
L 244.858815 177.779836 
L 225.616965 181.628206 
L 238.303725 168.941446 
L 221.363516 172.329487 
L 232.788959 160.904044 
L 217.727252 163.916386 
L 227.958485 153.685152 
L 214.524997 156.37185 
L 223.670661 147.226187 
L 211.677573 149.624804 
L 219.84833 141.454046 
L 209.137888 143.596135 
L 216.436399 136.297623 
L 206.870498 138.210803 
L 213.389524 131.691777 
L 204.845597 133.400563 
L 210.668288 127.577871 
L 203.03708 129.104113 
" clip-path="url(#pc8a9c3e1a1)" style="fill: none; stroke: #5b7055; stroke-width: 1.2; stroke-linecap: square"/>
    <defs>
     <path id="mbec4162b1a" d="M 0 1.6 
C 0.424325 1.6 0.831328 1.431414 1.131371 1.131371 
C 1.431414 0.831328 1.6 0.424325 1.6 0 
C 1.6 -0.424325 1.431414 -0.831328 1.131371 -1.131371 
C 0.831328 -1.431414 0.424325 -1.6 0 -1.6 
C -0.424325 -1.6 -0.831328 -1.431414 -1.131371 -1.131371 
C -1.431414 -0.831328 -1.6 -0.424325 -1.6 0 
C -1.6 0.424325 -1.431414 0.831328 -1.131371 1.131371 
C -0.831328 1.431414 -0.424325 1.6 0 1.6 
z
" style="stroke: #5b7055"/>
    </defs>
    <g clip-path="url(#pc8a9c3e1a1)">
     <use xlink:href="#mbec4162b1a" x="317.4158" y="248.58" style="fill: #5b7055; stroke: #5b7055"/>
     <use xlink:href="#mbec4162b1a" x="323.8908" y="242.105" style="fill: #5b7055; stroke: #5b7055"/>
     <use xlink:href="#mbec4162b1a" x="326.793386" y="234.848534" style="fill: #5b7055; stroke: #5b7055"/>
     <use xlink:href="#mbec4162b1a" x="306.604096" y="204.564599" style="fill: #5b7055; stroke: #5b7055"/>
     <use xlink:href="#mbec4162b1a" x="260.252473" y="213.834923" style="fill: #5b7055; stroke: #5b7055"/>
     <use xlink:href="#mbec4162b1a" x="272.332035" y="201.755361" style="fill: #5b7055; stroke: #5b7055"/>
     <use xlink:href="#mbec4162b1a" x="268.158301" y="195.494758" style="fill: #5b7055; stroke: #5b7055"/>
     <use xlink:href="#mbec4162b1a" x="239.418133" y="201.242792" style="fill: #5b7055; stroke: #5b7055"/>
     <use xlink:href="#mbec4162b1a" x="253.558248" y="187.102677" style="fill: #5b7055; stroke: #5b7055"/>
     <use xlink:href="#mbec4162b1a" x="231.030405" y="191.608246" style="fill: #5b7055; stroke: #5b7055"/>
     <use xlink:href="#mbec4162b1a" x="244.858815" y="177.779836" style="fill: #5b7055; stroke: #5b7055"/>
     <use xlink:href="#mbec4162b1a" x="225.616965" y="181.628206" style="fill: #5b7055; stroke: #5b7055"/>
     <use xlink:href="#mbec4162b1a" x="238.303725" y="168.941446" style="fill: #5b7055; stroke: #5b7055"/>
     <use xlink:href="#mbec4162b1a" x="221.363516" y="172.329487" style="fill: #5b7055; stroke: #5b7055"/>
     <use xlink:href="#mbec4162b1a" x="232.788959" y="160.904044" style="fill: #5b7055; stroke: #5b7055"/>
     <use xlink:href="#mbec4162b1a" x="217.727252" y="163.916386" style="fill: #5b7055; stroke: #5b7055"/>
     <use xlink:href="#mbec4162b1a" x="227.958485" y="153.685152" style="fill: #5b7055; stroke: #5b7055"/>
     <use xlink:href="#mbec4162b1a" x="214.524997" y="156.37185" style="fill: #5b7055; stroke: #5b7055"/>
     <use xlink:href="#mbec4162b1a" x="223.670661" y="147.226187" style="fill: #5b7055; stroke: #5b7055"/>
     <use xlink:href="#mbec4162b1a" x="211.677573" y="149.624804" style="fill: #5b7055; stroke: #5b7055"/>
     <use xlink:href="#mbec4162b1a" x="219.84833" y="141.454046" style="fill: #5b7055; stroke: #5b7055"/>
     <use xlink:href="#mbec4162b1a" x="209.137888" y="143.596135" style="fill: #5b7055; stroke: #5b7055"/>
     <use xlink:href="#mbec4162b1a" x="216.436399" y="136.297623" style="fill: #5b7055; stroke: #5b7055"/>
     <use xlink:href="#mbec4162b1a" x="206.870498" y="138.210803" style="fill: #5b7055; stroke: #5b7055"/>
     <use xlink:href="#mbec4162b1a" x="213.389524" y="131.691777" style="fill: #5b7055; stroke: #5b7055"/>
     <use xlink:href="#mbec4162b1a" x="204.845597" y="133.400563" style="fill: #5b7055; stroke: #5b7055"/>
     <use xlink:href="#mbec4162b1a" x="210.668288" y="127.577871" style="fill: #5b7055; stroke: #5b7055"/>
     <use xlink:href="#mbec4162b1a" x="203.03708" y="129.104113" style="fill: #5b7055; stroke: #5b7055"/>
    </g>
   </g>
   <g id="line2d_21">
    <path d="M 317.4158 248.58 
L 330.3658 235.63 
L 333.04511 228.931724 
L 293.473758 169.574695 
L 206.667009 186.936045 
L 244.169427 149.433627 
L 200.897406 158.088031 
L 226.860619 132.124819 
L 196.903066 138.116329 
L 214.877597 120.141797 
L 194.137753 124.289766 
L 206.58166 111.84586 
L 192.223306 114.717531 
L 200.838318 106.102518 
L 190.89792 108.090598 
L 196.862159 102.126359 
L 189.980344 103.502722 
L 194.109433 99.373633 
L 189.3451 100.3265 
L 192.2037 97.4679 
L 188.905315 98.127577 
L 190.884346 96.148546 
L 188.600849 96.605245 
L 189.970947 95.235147 
L 188.390065 95.551324 
L 189.338594 94.602794 
L 188.244137 94.821686 
" clip-path="url(#pc8a9c3e1a1)" style="fill: none; stroke: #1e1c19; stroke-width: 1.2; stroke-linecap: square"/>
    <defs>
     <path id="m50ea837c4c" d="M -1.6 1.6 
L 1.6 1.6 
L 1.6 -1.6 
L -1.6 -1.6 
z
" style="stroke: #1e1c19; stroke-linejoin: miter"/>
    </defs>
    <g clip-path="url(#pc8a9c3e1a1)">
     <use xlink:href="#m50ea837c4c" x="317.4158" y="248.58" style="fill: #1e1c19; stroke: #1e1c19; stroke-linejoin: miter"/>
     <use xlink:href="#m50ea837c4c" x="330.3658" y="235.63" style="fill: #1e1c19; stroke: #1e1c19; stroke-linejoin: miter"/>
     <use xlink:href="#m50ea837c4c" x="333.04511" y="228.931724" style="fill: #1e1c19; stroke: #1e1c19; stroke-linejoin: miter"/>
     <use xlink:href="#m50ea837c4c" x="293.473758" y="169.574695" style="fill: #1e1c19; stroke: #1e1c19; stroke-linejoin: miter"/>
     <use xlink:href="#m50ea837c4c" x="206.667009" y="186.936045" style="fill: #1e1c19; stroke: #1e1c19; stroke-linejoin: miter"/>
     <use xlink:href="#m50ea837c4c" x="244.169427" y="149.433627" style="fill: #1e1c19; stroke: #1e1c19; stroke-linejoin: miter"/>
     <use xlink:href="#m50ea837c4c" x="200.897406" y="158.088031" style="fill: #1e1c19; stroke: #1e1c19; stroke-linejoin: miter"/>
     <use xlink:href="#m50ea837c4c" x="226.860619" y="132.124819" style="fill: #1e1c19; stroke: #1e1c19; stroke-linejoin: miter"/>
     <use xlink:href="#m50ea837c4c" x="196.903066" y="138.116329" style="fill: #1e1c19; stroke: #1e1c19; stroke-linejoin: miter"/>
     <use xlink:href="#m50ea837c4c" x="214.877597" y="120.141797" style="fill: #1e1c19; stroke: #1e1c19; stroke-linejoin: miter"/>
     <use xlink:href="#m50ea837c4c" x="194.137753" y="124.289766" style="fill: #1e1c19; stroke: #1e1c19; stroke-linejoin: miter"/>
     <use xlink:href="#m50ea837c4c" x="206.58166" y="111.84586" style="fill: #1e1c19; stroke: #1e1c19; stroke-linejoin: miter"/>
     <use xlink:href="#m50ea837c4c" x="192.223306" y="114.717531" style="fill: #1e1c19; stroke: #1e1c19; stroke-linejoin: miter"/>
     <use xlink:href="#m50ea837c4c" x="200.838318" y="106.102518" style="fill: #1e1c19; stroke: #1e1c19; stroke-linejoin: miter"/>
     <use xlink:href="#m50ea837c4c" x="190.89792" y="108.090598" style="fill: #1e1c19; stroke: #1e1c19; stroke-linejoin: miter"/>
     <use xlink:href="#m50ea837c4c" x="196.862159" y="102.126359" style="fill: #1e1c19; stroke: #1e1c19; stroke-linejoin: miter"/>
     <use xlink:href="#m50ea837c4c" x="189.980344" y="103.502722" style="fill: #1e1c19; stroke: #1e1c19; stroke-linejoin: miter"/>
     <use xlink:href="#m50ea837c4c" x="194.109433" y="99.373633" style="fill: #1e1c19; stroke: #1e1c19; stroke-linejoin: miter"/>
     <use xlink:href="#m50ea837c4c" x="189.3451" y="100.3265" style="fill: #1e1c19; stroke: #1e1c19; stroke-linejoin: miter"/>
     <use xlink:href="#m50ea837c4c" x="192.2037" y="97.4679" style="fill: #1e1c19; stroke: #1e1c19; stroke-linejoin: miter"/>
     <use xlink:href="#m50ea837c4c" x="188.905315" y="98.127577" style="fill: #1e1c19; stroke: #1e1c19; stroke-linejoin: miter"/>
     <use xlink:href="#m50ea837c4c" x="190.884346" y="96.148546" style="fill: #1e1c19; stroke: #1e1c19; stroke-linejoin: miter"/>
     <use xlink:href="#m50ea837c4c" x="188.600849" y="96.605245" style="fill: #1e1c19; stroke: #1e1c19; stroke-linejoin: miter"/>
     <use xlink:href="#m50ea837c4c" x="189.970947" y="95.235147" style="fill: #1e1c19; stroke: #1e1c19; stroke-linejoin: miter"/>
     <use xlink:href="#m50ea837c4c" x="188.390065" y="95.551324" style="fill: #1e1c19; stroke: #1e1c19; stroke-linejoin: miter"/>
     <use xlink:href="#m50ea837c4c" x="189.338594" y="94.602794" style="fill: #1e1c19; stroke: #1e1c19; stroke-linejoin: miter"/>
     <use xlink:href="#m50ea837c4c" x="188.244137" y="94.821686" style="fill: #1e1c19; stroke: #1e1c19; stroke-linejoin: miter"/>
    </g>
   </g>
   <g id="line2d_22">
    <path d="M 317.4158 248.58 
L 340.7258 225.27 
L 268.285492 116.609538 
L 137.294327 142.807772 
L 227.518647 52.583451 
L 144.922606 69.102659 
L 161.946874 52.078392 
" clip-path="url(#pc8a9c3e1a1)" style="fill: none; stroke: #9a4b3c; stroke-width: 1.2; stroke-linecap: square"/>
    <defs>
     <path id="m88b594fd01" d="M 0 -1.6 
L -1.6 1.6 
L 1.6 1.6 
z
" style="stroke: #9a4b3c; stroke-linejoin: miter"/>
    </defs>
    <g clip-path="url(#pc8a9c3e1a1)">
     <use xlink:href="#m88b594fd01" x="317.4158" y="248.58" style="fill: #9a4b3c; stroke: #9a4b3c; stroke-linejoin: miter"/>
     <use xlink:href="#m88b594fd01" x="340.7258" y="225.27" style="fill: #9a4b3c; stroke: #9a4b3c; stroke-linejoin: miter"/>
     <use xlink:href="#m88b594fd01" x="268.285492" y="116.609538" style="fill: #9a4b3c; stroke: #9a4b3c; stroke-linejoin: miter"/>
     <use xlink:href="#m88b594fd01" x="137.294327" y="142.807772" style="fill: #9a4b3c; stroke: #9a4b3c; stroke-linejoin: miter"/>
     <use xlink:href="#m88b594fd01" x="227.518647" y="52.583451" style="fill: #9a4b3c; stroke: #9a4b3c; stroke-linejoin: miter"/>
     <use xlink:href="#m88b594fd01" x="144.922606" y="69.102659" style="fill: #9a4b3c; stroke: #9a4b3c; stroke-linejoin: miter"/>
     <use xlink:href="#m88b594fd01" x="161.946874" y="52.078392" style="fill: #9a4b3c; stroke: #9a4b3c; stroke-linejoin: miter"/>
    </g>
   </g>
   <g id="text_16">
    <text style="font-size: 9px; font-family: 'Source Sans 3','Source Sans Pro','Helvetica Neue',Arial,sans-serif; text-anchor: start; fill: #1e1c19" x="322.5958" y="261.53" transform="rotate(-0 322.5958 261.53)">a(1)</text>
   </g>
   <g id="line2d_23">
    <defs>
     <path id="m91f040b9b2" d="M 0 2.5 
C 0.663008 2.5 1.29895 2.236584 1.767767 1.767767 
C 2.236584 1.29895 2.5 0.663008 2.5 0 
C 2.5 -0.663008 2.236584 -1.29895 1.767767 -1.767767 
C 1.29895 -2.236584 0.663008 -2.5 0 -2.5 
C -0.663008 -2.5 -1.29895 -2.236584 -1.767767 -1.767767 
C -2.236584 -1.29895 -2.5 -0.663008 -2.5 0 
C -2.5 0.663008 -2.236584 1.29895 -1.767767 1.767767 
C -1.29895 2.236584 -0.663008 2.5 0 2.5 
z
" style="stroke: #1e1c19"/>
    </defs>
    <g clip-path="url(#pc8a9c3e1a1)">
     <use xlink:href="#m91f040b9b2" x="317.4158" y="248.58" style="fill: #1e1c19; stroke: #1e1c19"/>
    </g>
   </g>
   <g id="legend_1">
    <g id="line2d_24">
     <path d="M 302.636894 27.268594 
L 311.636894 27.268594 
L 320.636894 27.268594 
" style="fill: none; stroke: #5b7055; stroke-width: 1.2; stroke-linecap: square"/>
     <g>
      <use xlink:href="#mbec4162b1a" x="311.636894" y="27.268594" style="fill: #5b7055; stroke: #5b7055"/>
     </g>
    </g>
    <g id="text_17">
     <text style="font-size: 9px; font-family: 'Source Sans 3','Source Sans Pro','Helvetica Neue',Arial,sans-serif; text-anchor: start; fill: #1e1c19" x="327.836894" y="30.418594" transform="rotate(-0 327.836894 30.418594)">η = 0.5</text>
    </g>
    <g id="line2d_25">
     <path d="M 302.636894 40.478906 
L 311.636894 40.478906 
L 320.636894 40.478906 
" style="fill: none; stroke: #1e1c19; stroke-width: 1.2; stroke-linecap: square"/>
     <g>
      <use xlink:href="#m50ea837c4c" x="311.636894" y="40.478906" style="fill: #1e1c19; stroke: #1e1c19; stroke-linejoin: miter"/>
     </g>
    </g>
    <g id="text_18">
     <text style="font-size: 9px; font-family: 'Source Sans 3','Source Sans Pro','Helvetica Neue',Arial,sans-serif; text-anchor: start; fill: #1e1c19" x="327.836894" y="43.628906" transform="rotate(-0 327.836894 43.628906)">η = 1.0</text>
    </g>
    <g id="line2d_26">
     <path d="M 302.636894 53.689219 
L 311.636894 53.689219 
L 320.636894 53.689219 
" style="fill: none; stroke: #9a4b3c; stroke-width: 1.2; stroke-linecap: square"/>
     <g>
      <use xlink:href="#m88b594fd01" x="311.636894" y="53.689219" style="fill: #9a4b3c; stroke: #9a4b3c; stroke-linejoin: miter"/>
     </g>
    </g>
    <g id="text_19">
     <text style="font-size: 9px; font-family: 'Source Sans 3','Source Sans Pro','Helvetica Neue',Arial,sans-serif; text-anchor: start; fill: #1e1c19" x="327.836894" y="56.839219" transform="rotate(-0 327.836894 56.839219)">η = 1.8</text>
    </g>
   </g>
  </g>
 </g>
 <defs>
  <clipPath id="pc8a9c3e1a1">
   <rect x="58.4158" y="15.48" width="310.8" height="259"/>
  </clipPath>
 </defs>
</svg>
