<svg xmlns="http://www.w3.org/2000/svg" viewBox="0 0 760 380" width="760" height="380" font-family="'Source Sans 3','Source Sans Pro','Helvetica Neue',Arial,sans-serif">
<text x="60.0" y="285.0" font-size="12" fill="#5d574d" text-anchor="end">1</text>
<rect x="70.0" y="260.0" width="48.0" height="40.0" rx="0" fill="#d5d9e0" stroke="#d9d0bf" stroke-width="1"/>
<text x="94.0" y="285.0" font-size="13" fill="#1e1c19" text-anchor="middle" font-weight="600">U</text>
<rect x="118.0" y="260.0" width="48.0" height="40.0" rx="0" fill="#d5d9e0" stroke="#d9d0bf" stroke-width="1"/>
<text x="142.0" y="285.0" font-size="13" fill="#1e1c19" text-anchor="middle" font-weight="600">U</text>
<rect x="166.0" y="260.0" width="48.0" height="40.0" rx="0" fill="#d5d9e0" stroke="#d9d0bf" stroke-width="1"/>
<text x="190.0" y="285.0" font-size="13" fill="#1e1c19" text-anchor="middle" font-weight="600">S</text>
<rect x="214.0" y="260.0" width="48.0" height="40.0" rx="0" fill="#d5d9e0" stroke="#d9d0bf" stroke-width="1"/>
<text x="238.0" y="285.0" font-size="13" fill="#1e1c19" text-anchor="middle" font-weight="600">D</text>
<rect x="262.0" y="260.0" width="48.0" height="40.0" rx="0" fill="#d5d9e0" stroke="#d9d0bf" stroke-width="1"/>
<text x="286.0" y="285.0" font-size="13" fill="#1e1c19" text-anchor="middle" font-weight="600">D</text>
<rect x="310.0" y="260.0" width="48.0" height="40.0" rx="0" fill="#d5d9e0" stroke="#d9d0bf" stroke-width="1"/>
<text x="334.0" y="285.0" font-size="13" fill="#1e1c19" text-anchor="middle" font-weight="600">S</text>
<text x="60.0" y="245.0" font-size="12" fill="#5d574d" text-anchor="end">2</text>
<rect x="70.0" y="220.0" width="48.0" height="40.0" rx="0" fill="#fbf8f2" stroke="#d9d0bf" stroke-width="1"/>
<rect x="118.0" y="220.0" width="48.0" height="40.0" rx="0" fill="#fbf8f2" stroke="#d9d0bf" stroke-width="1"/>
<rect x="166.0" y="220.0" width="48.0" height="40.0" rx="0" fill="#d5d9e0" stroke="#d9d0bf" stroke-width="1"/>
<text x="190.0" y="245.0" font-size="13" fill="#1e1c19" text-anchor="middle" font-weight="600">T</text>
<rect x="214.0" y="220.0" width="48.0" height="40.0" rx="0" fill="#fbf8f2" stroke="#d9d0bf" stroke-width="1"/>
<rect x="262.0" y="220.0" width="48.0" height="40.0" rx="0" fill="#fbf8f2" stroke="#d9d0bf" stroke-width="1"/>
<text x="60.0" y="205.0" font-size="12" fill="#5d574d" text-anchor="end">3</text>
<rect x="70.0" y="180.0" width="48.0" height="40.0" rx="0" fill="#fbf8f2" stroke="#d9d0bf" stroke-width="1"/>
<rect x="118.0" y="180.0" width="48.0" height="40.0" rx="0" fill="#d5d9e0" stroke="#d9d0bf" stroke-width="1"/>
<text x="142.0" y="205.0" font-size="13" fill="#1e1c19" text-anchor="middle" font-weight="600">S</text>
<rect x="166.0" y="180.0" width="48.0" height="40.0" rx="0" fill="#fbf8f2" stroke="#d9d0bf" stroke-width="1"/>
<rect x="214.0" y="180.0" width="48.0" height="40.0" rx="0" fill="#fbf8f2" stroke="#d9d0bf" stroke-width="1"/>
<text x="60.0" y="165.0" font-size="12" fill="#5d574d" text-anchor="end">4</text>
<rect x="70.0" y="140.0" width="48.0" height="40.0" rx="0" fill="#fbf8f2" stroke="#d9d0bf" stroke-width="1"/>
<rect x="118.0" y="140.0" width="48.0" height="40.0" rx="0" fill="#d5d9e0" stroke="#d9d0bf" stroke-width="1"/>
<text x="142.0" y="165.0" font-size="13" fill="#1e1c19" text-anchor="middle" font-weight="600">T</text>
<rect x="166.0" y="140.0" width="48.0" height="40.0" rx="0" fill="#fbf8f2" stroke="#d9d0bf" stroke-width="1"/>
<text x="60.0" y="125.0" font-size="12" fill="#5d574d" text-anchor="end">5</text>
<rect x="70.0" y="100.0" width="48.0" height="40.0" rx="0" fill="#d5d9e0" stroke="#d9d0bf" stroke-width="1"/>
<text x="94.0" y="125.0" font-size="13" fill="#1e1c19" text-anchor="middle" font-weight="600">S</text>
<rect x="118.0" y="100.0" width="48.0" height="40.0" rx="0" fill="#fbf8f2" stroke="#d9d0bf" stroke-width="1"/>
<text x="60.0" y="85.0" font-size="12" fill="#5d574d" text-anchor="end">6</text>
<rect x="70.0" y="60.0" width="48.0" height="40.0" rx="0" fill="#d5d9e0" stroke="#d9d0bf" stroke-width="1"/>
<text x="94.0" y="85.0" font-size="13" fill="#1e1c19" text-anchor="middle" font-weight="600">S</text>
<text x="94.0" y="322.0" font-size="16" fill="#8a6a3a" text-anchor="middle" font-family="'JetBrains Mono',Menlo,monospace">u</text>
<text x="94.0" y="340.0" font-size="10.5" fill="#5d574d" text-anchor="middle">1</text>
<text x="142.0" y="322.0" font-size="16" fill="#8a6a3a" text-anchor="middle" font-family="'JetBrains Mono',Menlo,monospace">u</text>
<text x="142.0" y="340.0" font-size="10.5" fill="#5d574d" text-anchor="middle">2</text>
<text x="190.0" y="322.0" font-size="16" fill="#8a6a3a" text-anchor="middle" font-family="'JetBrains Mono',Menlo,monospace">f</text>
<text x="190.0" y="340.0" font-size="10.5" fill="#5d574d" text-anchor="middle">3</text>
<text x="238.0" y="322.0" font-size="16" fill="#8a6a3a" text-anchor="middle" font-family="'JetBrains Mono',Menlo,monospace">d</text>
<text x="238.0" y="340.0" font-size="10.5" fill="#5d574d" text-anchor="middle">4</text>
<text x="286.0" y="322.0" font-size="16" fill="#8a6a3a" text-anchor="middle" font-family="'JetBrains Mono',Menlo,monospace">d</text>
<text x="286.0" y="340.0" font-size="10.5" fill="#5d574d" text-anchor="middle">5</text>
<text x="334.0" y="322.0" font-size="16" fill="#8a6a3a" text-anchor="middle" font-family="'JetBrains Mono',Menlo,monospace">f</text>
<text x="334.0" y="340.0" font-size="10.5" fill="#5d574d" text-anchor="middle">6</text>
<text transform="rotate(-90 34 180.0)" x="34.0" y="180.0" font-size="11.5" fill="#5d574d" text-anchor="middle">factor length j</text>
<text x="214.0" y="362.0" font-size="11.5" fill="#5d574d" text-anchor="middle">start position i</text>
<line x1="446.7" y1="120.0" x2="446.7" y2="272.0" stroke="#b9ad96" stroke-width="1.1" stroke-dasharray="3,3"/>
<line x1="500.0" y1="208.0" x2="500.0" y2="272.0" stroke="#b9ad96" stroke-width="1.1" stroke-dasharray="3,3"/>
<line x1="553.3" y1="252.0" x2="553.3" y2="272.0" stroke="#b9ad96" stroke-width="1.1" stroke-dasharray="3,3"/>
<line x1="606.7" y1="252.0" x2="606.7" y2="272.0" stroke="#b9ad96" stroke-width="1.1" stroke-dasharray="3,3"/>
<line x1="580.0" y1="208.0" x2="553.3" y2="232.0" stroke="#b9ad96" stroke-width="1.2"/>
<line x1="580.0" y1="208.0" x2="606.7" y2="232.0" stroke="#b9ad96" stroke-width="1.2"/>
<line x1="540.0" y1="164.0" x2="500.0" y2="188.0" stroke="#b9ad96" stroke-width="1.2"/>
<line x1="540.0" y1="164.0" x2="580.0" y2="188.0" stroke="#b9ad96" stroke-width="1.2"/>
<line x1="660.0" y1="164.0" x2="660.0" y2="272.0" stroke="#b9ad96" stroke-width="1.1" stroke-dasharray="3,3"/>
<line x1="600.0" y1="120.0" x2="540.0" y2="144.0" stroke="#b9ad96" stroke-width="1.2"/>
<line x1="600.0" y1="120.0" x2="660.0" y2="144.0" stroke="#b9ad96" stroke-width="1.2"/>
<line x1="523.3" y1="76.0" x2="446.7" y2="100.0" stroke="#b9ad96" stroke-width="1.2"/>
<line x1="523.3" y1="76.0" x2="600.0" y2="100.0" stroke="#b9ad96" stroke-width="1.2"/>
<line x1="713.3" y1="76.0" x2="713.3" y2="272.0" stroke="#b9ad96" stroke-width="1.1" stroke-dasharray="3,3"/>
<line x1="618.3" y1="32.0" x2="523.3" y2="56.0" stroke="#b9ad96" stroke-width="1.2"/>
<line x1="618.3" y1="32.0" x2="713.3" y2="56.0" stroke="#b9ad96" stroke-width="1.2"/>
<circle cx="446.7" cy="112.0" r="12" fill="#fbf8f2" stroke="#b9ad96" stroke-width="1.2"/>
<text x="446.7" y="117.0" font-size="13" fill="#1f2e4a" text-anchor="middle" font-weight="600">U</text>
<circle cx="500.0" cy="200.0" r="12" fill="#fbf8f2" stroke="#b9ad96" stroke-width="1.2"/>
<text x="500.0" y="205.0" font-size="13" fill="#1f2e4a" text-anchor="middle" font-weight="600">U</text>
<circle cx="553.3" cy="244.0" r="12" fill="#fbf8f2" stroke="#b9ad96" stroke-width="1.2"/>
<text x="553.3" y="249.0" font-size="13" fill="#1f2e4a" text-anchor="middle" font-weight="600">S</text>
<circle cx="606.7" cy="244.0" r="12" fill="#fbf8f2" stroke="#b9ad96" stroke-width="1.2"/>
<text x="606.7" y="249.0" font-size="13" fill="#1f2e4a" text-anchor="middle" font-weight="600">D</text>
<circle cx="580.0" cy="200.0" r="12" fill="#fbf8f2" stroke="#b9ad96" stroke-width="1.2"/>
<text x="580.0" y="205.0" font-size="13" fill="#1f2e4a" text-anchor="middle" font-weight="600">T</text>
<circle cx="540.0" cy="156.0" r="12" fill="#fbf8f2" stroke="#b9ad96" stroke-width="1.2"/>
<text x="540.0" y="161.0" font-size="13" fill="#1f2e4a" text-anchor="middle" font-weight="600">S</text>
<circle cx="660.0" cy="156.0" r="12" fill="#fbf8f2" stroke="#b9ad96" stroke-width="1.2"/>
<text x="660.0" y="161.0" font-size="13" fill="#1f2e4a" text-anchor="middle" font-weight="600">D</text>
<circle cx="600.0" cy="112.0" r="12" fill="#fbf8f2" stroke="#b9ad96" stroke-width="1.2"/>
<text x="600.0" y="117.0" font-size="13" fill="#1f2e4a" text-anchor="middle" font-weight="600">T</text>
<circle cx="523.3" cy="68.0" r="12" fill="#fbf8f2" stroke="#b9ad96" stroke-width="1.2"/>
<text x="523.3" y="73.0" font-size="13" fill="#1f2e4a" text-anchor="middle" font-weight="600">S</text>
<circle cx="713.3" cy="68.0" r="12" fill="#fbf8f2" stroke="#b9ad96" stroke-width="1.2"/>
<text x="713.3" y="73.0" font-size="13" fill="#1f2e4a" text-anchor="middle" font-weight="600">S</text>
<circle cx="618.3" cy="24.0" r="12" fill="#fbf8f2" stroke="#b9ad96" stroke-width="1.2"/>
<text x="618.3" y="29.0" font-size="13" fill="#1f2e4a" text-anchor="middle" font-weight="600">S</text>
<text x="446.7" y="288.0" font-size="16" fill="#8a6a3a" text-anchor="middle" font-family="'JetBrains Mono',Menlo,monospace">u</text>
<text x="500.0" y="288.0" font-size="16" fill="#8a6a3a" text-anchor="middle" font-family="'JetBrains Mono',Menlo,monospace">u</text>
<text x="553.3" y="288.0" font-size="16" fill="#8a6a3a" text-anchor="middle" font-family="'JetBrains Mono',Menlo,monospace">f</text>
<text x="606.7" y="288.0" font-size="16" fill="#8a6a3a" text-anchor="middle" font-family="'JetBrains Mono',Menlo,monospace">d</text>
<text x="660.0" y="288.0" font-size="16" fill="#8a6a3a" text-anchor="middle" font-family="'JetBrains Mono',Menlo,monospace">d</text>
<text x="713.3" y="288.0" font-size="16" fill="#8a6a3a" text-anchor="middle" font-family="'JetBrains Mono',Menlo,monospace">f</text>
</svg>
