<?xml version="1.0" encoding="utf-8" standalone="no"?>
<!DOCTYPE svg PUBLIC "-//W3C//DTD SVG 1.1//EN"
  "http://www.w3.org/Graphics/SVG/1.1/DTD/svg11.dtd">
<svg xmlns:xlink="http://www.w3.org/1999/xlink" width="460.8pt" height="259.2pt" viewBox="0 0 460.8 259.2" xmlns="http://www.w3.org/2000/svg" version="1.1">
 <metadata>
  <rdf:RDF xmlns:dc="http://purl.org/dc/elements/1.1/" xmlns:cc="http://creativecommons.org/ns#" xmlns:rdf="http://www.w3.org/1999/02/22-rdf-syntax-ns#">
   <cc:Work>
    <dc:type rdf:resource="http://purl.org/dc/dcmitype/StillImage"/>
    
    <dc:format>image/svg+xml</dc:format>
    <dc:creator>
     <cc:Agent>
      <dc:title>Matplotlib v3.10.9, https://matplotlib.org/</dc:title>
     </cc:Agent>
    </dc:creator>
   </cc:Work>
  </rdf:RDF>
 </metadata>
 <defs>
  <style type="text/css">*{stroke-linejoin: round; stroke-linecap: butt}</style>
 </defs>
 <g id="figure_1">
  <g id="patch_1">
   <path d="M 0 259.2 
L 460.8 259.2 
L 460.8 0 
L 0 0 
L 0 259.2 
z
" style="fill: none; opacity: 0"/>
  </g>
  <g id="axes_1">
   <g id="patch_2">
    <path d="M 49.79 214.72 
L 448.92 214.72 
L 448.92 11.88 
L 49.79 11.88 
L 49.79 214.72 
z
" style="fill: none"/>
   </g>
   <g id="matplotlib.axis_1">
    <g id="xtick_1">
     <g id="line2d_1">
      <path d="M 49.79 214.72 
L 49.79 11.88 
" clip-path="url(#p37eac94176)" style="fill: none; stroke: #d9d0bf; stroke-width: 0.6; stroke-linecap: square"/>
     </g>
     <g id="line2d_2">
      <defs>
       <path id="mcebff11b00" d="M 0 0 
L 0 3.5 
" style="stroke: #5d574d; stroke-width: 0.8"/>
      </defs>
      <g>
       <use xlink:href="#mcebff11b00" x="49.79" y="214.72" style="fill: #5d574d; stroke: #5d574d; stroke-width: 0.8"/>
      </g>
     </g>
     <g id="text_1">
      <text style="font-size: 11px; font-family: 'Source Sans 3','Source Sans Pro','Helvetica Neue',Arial,sans-serif; text-anchor: middle; fill: #5d574d" x="49.79" y="230.078281" transform="rotate(-0 49.79 230.078281)">0.0</text>
     </g>
    </g>
    <g id="xtick_2">
     <g id="line2d_3">
      <path d="M 113.6508 214.72 
L 113.6508 11.88 
" clip-path="url(#p37eac94176)" style="fill: none; stroke: #d9d0bf; stroke-width: 0.6; stroke-linecap: square"/>
     </g>
     <g id="line2d_4">
      <g>
       <use xlink:href="#mcebff11b00" x="113.6508" y="214.72" style="fill: #5d574d; stroke: #5d574d; stroke-width: 0.8"/>
      </g>
     </g>
     <g id="text_2">
      <text style="font-size: 11px; font-family: 'Source Sans 3','Source Sans Pro','Helvetica Neue',Arial,sans-serif; text-anchor: middle; fill: #5d574d" x="113.6508" y="230.078281" transform="rotate(-0 113.6508 230.078281)">0.2</text>
     </g>
    </g>
    <g id="xtick_3">
     <g id="line2d_5">
      <path d="M 177.5116 214.72 
L 177.5116 11.88 
" clip-path="url(#p37eac94176)" style="fill: none; stroke: #d9d0bf; stroke-width: 0.6; stroke-linecap: square"/>
     </g>
     <g id="line2d_6">
      <g>
       <use xlink:href="#mcebff11b00" x="177.5116" y="214.72" style="fill: #5d574d; stroke: #5d574d; stroke-width: 0.8"/>
      </g>
     </g>
     <g id="text_3">
      <text style="font-size: 11px; font-family: 'Source Sans 3','Source Sans Pro','Helvetica Neue',Arial,sans-serif; text-anchor: middle; fill: #5d574d" x="177.5116" y="230.078281" transform="rotate(-0 177.5116 230.078281)">0.4</text>
     </g>
    </g>
    <g id="xtick_4">
     <g id="line2d_7">
      <path d="M 241.3724 214.72 
L 241.3724 11.88 
" clip-path="url(#p37eac94176)" style="fill: none; stroke: #d9d0bf; stroke-width: 0.6; stroke-linecap: square"/>
     </g>
     <g id="line2d_8">
      <g>
       <use xlink:href="#mcebff11b00" x="241.3724" y="214.72" style="fill: #5d574d; stroke: #5d574d; stroke-width: 0.8"/>
      </g>
     </g>
     <g id="text_4">
      <text style="font-size: 11px; font-family: 'Source Sans 3','Source Sans Pro','Helvetica Neue',Arial,sans-serif; text-anchor: middle; fill: #5d574d" x="241.3724" y="230.078281" transform="rotate(-0 241.3724 230.078281)">0.6</text>
     </g>
    </g>
    <g id="xtick_5">
     <g id="line2d_9">
      <path d="M 305.2332 214.72 
L 305.2332 11.88 
" clip-path="url(#p37eac94176)" style="fill: none; stroke: #d9d0bf; stroke-width: 0.6; stroke-linecap: square"/>
     </g>
     <g id="line2d_10">
      <g>
       <use xlink:href="#mcebff11b00" x="305.2332" y="214.72" style="fill: #5d574d; stroke: #5d574d; stroke-width: 0.8"/>
      </g>
     </g>
     <g id="text_5">
      <text style="font-size: 11px; font-family: 'Source Sans 3','Source Sans Pro','Helvetica Neue',Arial,sans-serif; text-anchor: middle; fill: #5d574d" x="305.2332" y="230.078281" transform="rotate(-0 305.2332 230.078281)">0.8</text>
     </g>
    </g>
    <g id="xtick_6">
     <g id="line2d_11">
      <path d="M 369.094 214.72 
L 369.094 11.88 
" clip-path="url(#p37eac94176)" style="fill: none; stroke: #d9d0bf; stroke-width: 0.6; stroke-linecap: square"/>
     </g>
     <g id="line2d_12">
      <g>
       <use xlink:href="#mcebff11b00" x="369.094" y="214.72" style="fill: #5d574d; stroke: #5d574d; stroke-width: 0.8"/>
      </g>
     </g>
     <g id="text_6">
      <text style="font-size: 11px; font-family: 'Source Sans 3','Source Sans Pro','Helvetica Neue',Arial,sans-serif; text-anchor: middle; fill: #5d574d" x="369.094" y="230.078281" transform="rotate(-0 369.094 230.078281)">1.0</text>
     </g>
    </g>
    <g id="xtick_7">
     <g id="line2d_13">
      <path d="M 432.9548 214.72 
L 432.9548 11.88 
" clip-path="url(#p37eac94176)" style="fill: none; stroke: #d9d0bf; stroke-width: 0.6; stroke-linecap: square"/>
     </g>
     <g id="line2d_14">
      <g>
       <use xlink:href="#mcebff11b00" x="432.9548" y="214.72" style="fill: #5d574d; stroke: #5d574d; stroke-width: 0.8"/>
      </g>
     </g>
     <g id="text_7">
      <text style="font-size: 11px; font-family: 'Source Sans 3','Source Sans Pro','Helvetica Neue',Arial,sans-serif; text-anchor: middle; fill: #5d574d" x="432.9548" y="230.078281" transform="rotate(-0 432.9548 230.078281)">1.2</text>
     </g>
    </g>
    <g id="text_8">
     <text style="font-size: 11px; font-family: 'Source Sans 3','Source Sans Pro','Helvetica Neue',Arial,sans-serif; text-anchor: middle; fill: #5d574d" x="249.355" y="244.724219" transform="rotate(-0 249.355 244.724219)">x</text>
    </g>
   </g>
   <g id="matplotlib.axis_2">
    <g id="ytick_1">
     <g id="line2d_15">
      <path d="M 49.79 191.315385 
L 448.92 191.315385 
" clip-path="url(#p37eac94176)" style="fill: none; stroke: #d9d0bf; stroke-width: 0.6; stroke-linecap: square"/>
     </g>
     <g id="line2d_16">
      <defs>
       <path id="m2367cbebea" d="M 0 0 
L -3.5 0 
" style="stroke: #5d574d; stroke-width: 0.8"/>
      </defs>
      <g>
       <use xlink:href="#m2367cbebea" x="49.79" y="191.315385" style="fill: #5d574d; stroke: #5d574d; stroke-width: 0.8"/>
      </g>
     </g>
     <g id="text_9">
      <text style="font-size: 11px; font-family: 'Source Sans 3','Source Sans Pro','Helvetica Neue',Arial,sans-serif; text-anchor: end; fill: #5d574d" x="42.79" y="195.494525" transform="rotate(-0 42.79 195.494525)">−2</text>
     </g>
    </g>
    <g id="ytick_2">
     <g id="line2d_17">
      <path d="M 49.79 152.307692 
L 448.92 152.307692 
" clip-path="url(#p37eac94176)" style="fill: none; stroke: #d9d0bf; stroke-width: 0.6; stroke-linecap: square"/>
     </g>
     <g id="line2d_18">
      <g>
       <use xlink:href="#m2367cbebea" x="49.79" y="152.307692" style="fill: #5d574d; stroke: #5d574d; stroke-width: 0.8"/>
      </g>
     </g>
     <g id="text_10">
      <text style="font-size: 11px; font-family: 'Source Sans 3','Source Sans Pro','Helvetica Neue',Arial,sans-serif; text-anchor: end; fill: #5d574d" x="42.79" y="156.486833" transform="rotate(-0 42.79 156.486833)">−1</text>
     </g>
    </g>
    <g id="ytick_3">
     <g id="line2d_19">
      <path d="M 49.79 113.3 
L 448.92 113.3 
" clip-path="url(#p37eac94176)" style="fill: none; stroke: #d9d0bf; stroke-width: 0.6; stroke-linecap: square"/>
     </g>
     <g id="line2d_20">
      <g>
       <use xlink:href="#m2367cbebea" x="49.79" y="113.3" style="fill: #5d574d; stroke: #5d574d; stroke-width: 0.8"/>
      </g>
     </g>
     <g id="text_11">
      <text style="font-size: 11px; font-family: 'Source Sans 3','Source Sans Pro','Helvetica Neue',Arial,sans-serif; text-anchor: end; fill: #5d574d" x="42.79" y="117.479141" transform="rotate(-0 42.79 117.479141)">0</text>
     </g>
    </g>
    <g id="ytick_4">
     <g id="line2d_21">
      <path d="M 49.79 74.292308 
L 448.92 74.292308 
" clip-path="url(#p37eac94176)" style="fill: none; stroke: #d9d0bf; stroke-width: 0.6; stroke-linecap: square"/>
     </g>
     <g id="line2d_22">
      <g>
       <use xlink:href="#m2367cbebea" x="49.79" y="74.292308" style="fill: #5d574d; stroke: #5d574d; stroke-width: 0.8"/>
      </g>
     </g>
     <g id="text_12">
      <text style="font-size: 11px; font-family: 'Source Sans 3','Source Sans Pro','Helvetica Neue',Arial,sans-serif; text-anchor: end; fill: #5d574d" x="42.79" y="78.471448" transform="rotate(-0 42.79 78.471448)">1</text>
     </g>
    </g>
    <g id="ytick_5">
     <g id="line2d_23">
      <path d="M 49.79 35.284615 
L 448.92 35.284615 
" clip-path="url(#p37eac94176)" style="fill: none; stroke: #d9d0bf; stroke-width: 0.6; stroke-linecap: square"/>
     </g>
     <g id="line2d_24">
      <g>
       <use xlink:href="#m2367cbebea" x="49.79" y="35.284615" style="fill: #5d574d; stroke: #5d574d; stroke-width: 0.8"/>
      </g>
     </g>
     <g id="text_13">
      <text style="font-size: 11px; font-family: 'Source Sans 3','Source Sans Pro','Helvetica Neue',Arial,sans-serif; text-anchor: end; fill: #5d574d" x="42.79" y="39.463756" transform="rotate(-0 42.79 39.463756)">2</text>
     </g>
    </g>
    <g id="text_14">
     <text style="font-size: 11px; font-family: 'Source Sans 3','Source Sans Pro','Helvetica Neue',Arial,sans-serif; text-anchor: middle; fill: #5d574d" x="20.285938" y="113.3" transform="rotate(-90 20.285938 113.3)">t</text>
    </g>
   </g>
   <g id="FillBetweenPolyCollection_1">
    <defs>
     <path id="mc4d111eaa0" d="M 49.79 -179.74017 
L 49.79 -128.080235 
L 51.120433 -129.439012 
L 52.450867 -130.785823 
L 53.7813 -132.11897 
L 55.111733 -133.436795 
L 56.442167 -134.737705 
L 57.7726 -136.02018 
L 59.103033 -137.282796 
L 60.433467 -138.52424 
L 61.7639 -139.743325 
L 63.094333 -140.939011 
L 64.424767 -142.110413 
L 65.7552 -143.256811 
L 67.085633 -144.377663 
L 68.416067 -145.472601 
L 69.7465 -146.541432 
L 71.076933 -147.584133 
L 72.407367 -148.600836 
L 73.7378 -149.591815 
L 75.068233 -150.557464 
L 76.398667 -151.498276 
L 77.7291 -152.41482 
L 79.059533 -153.307712 
L 80.389967 -154.177591 
L 81.7204 -155.025098 
L 83.050833 -155.850848 
L 84.381267 -156.655412 
L 85.7117 -157.439302 
L 87.042133 -158.202953 
L 88.372567 -158.946714 
L 89.703 -159.67084 
L 91.033433 -160.375483 
L 92.363867 -161.060697 
L 93.6943 -161.726429 
L 95.024733 -162.372528 
L 96.355167 -162.998745 
L 97.6856 -163.604737 
L 99.016033 -164.190077 
L 100.346467 -164.754257 
L 101.6769 -165.2967 
L 103.007333 -165.816765 
L 104.337767 -166.313756 
L 105.6682 -166.786934 
L 106.998633 -167.235522 
L 108.329067 -167.658717 
L 109.6595 -168.055697 
L 110.989933 -168.425633 
L 112.320367 -168.767693 
L 113.6508 -169.081055 
L 114.981233 -169.364913 
L 116.311667 -169.618483 
L 117.6421 -169.841014 
L 118.972533 -170.031794 
L 120.302967 -170.190154 
L 121.6334 -170.315478 
L 122.963833 -170.407203 
L 124.294267 -170.464829 
L 125.6247 -170.487921 
L 126.955133 -170.476111 
L 128.285567 -170.429102 
L 129.616 -170.346671 
L 130.946433 -170.228667 
L 132.276867 -170.075016 
L 133.6073 -169.885715 
L 134.937733 -169.660835 
L 136.268167 -169.400518 
L 137.5986 -169.104974 
L 138.929033 -168.774477 
L 140.259467 -168.409363 
L 141.5899 -168.010023 
L 142.920333 -167.576902 
L 144.250767 -167.110487 
L 145.5812 -166.61131 
L 146.911633 -166.079932 
L 148.242067 -165.516945 
L 149.5725 -164.922962 
L 150.902933 -164.29861 
L 152.233367 -163.644525 
L 153.5638 -162.961346 
L 154.894233 -162.249708 
L 156.224667 -161.510237 
L 157.5551 -160.743548 
L 158.885533 -159.950234 
L 160.215967 -159.130868 
L 161.5464 -158.285998 
L 162.876833 -157.416147 
L 164.207267 -156.521806 
L 165.5377 -155.603443 
L 166.868133 -154.661497 
L 168.198567 -153.696383 
L 169.529 -152.708496 
L 170.859433 -151.698216 
L 172.189867 -150.665913 
L 173.5203 -149.611955 
L 174.850733 -148.536716 
L 176.181167 -147.440587 
L 177.5116 -146.323982 
L 178.842033 -145.187351 
L 180.172467 -144.031194 
L 181.5029 -142.856064 
L 182.833333 -141.662582 
L 184.163767 -140.451447 
L 185.4942 -139.223441 
L 186.824633 -137.979438 
L 188.155067 -136.720411 
L 189.4855 -135.447434 
L 190.815933 -134.161681 
L 192.146367 -132.864434 
L 193.4768 -131.557073 
L 194.807233 -130.241077 
L 196.137667 -128.91802 
L 197.4681 -127.58956 
L 198.798533 -126.257432 
L 200.128967 -124.923446 
L 201.4594 -123.589466 
L 202.789833 -122.257409 
L 204.120267 -120.92923 
L 205.4507 -119.606915 
L 206.781133 -118.292465 
L 208.111567 -116.98789 
L 209.442 -115.695198 
L 210.772433 -114.416384 
L 212.102867 -113.153421 
L 213.4333 -111.908254 
L 214.763733 -110.682789 
L 216.094167 -109.478884 
L 217.4246 -108.298346 
L 218.755033 -107.142922 
L 220.085467 -106.014294 
L 221.4159 -104.914071 
L 222.746333 -103.843788 
L 224.076767 -102.804897 
L 225.4072 -101.798767 
L 226.737633 -100.826677 
L 228.068067 -99.889815 
L 229.3985 -98.989273 
L 230.728933 -98.126045 
L 232.059367 -97.301027 
L 233.3898 -96.515012 
L 234.720233 -95.768688 
L 236.050667 -95.062641 
L 237.3811 -94.397348 
L 238.711533 -93.773181 
L 240.041967 -93.190404 
L 241.3724 -92.649174 
L 242.702833 -92.14954 
L 244.033267 -91.691443 
L 245.3637 -91.274718 
L 246.694133 -90.899093 
L 248.024567 -90.564192 
L 249.355 -90.269535 
L 250.685433 -90.014539 
L 252.015867 -89.798521 
L 253.3463 -89.620702 
L 254.676733 -89.480206 
L 256.007167 -89.376063 
L 257.3376 -89.307217 
L 258.668033 -89.272524 
L 259.998467 -89.270761 
L 261.3289 -89.300627 
L 262.659333 -89.36075 
L 263.989767 -89.449695 
L 265.3202 -89.565967 
L 266.650633 -89.708021 
L 267.981067 -89.874268 
L 269.3115 -90.063088 
L 270.641933 -90.272836 
L 271.972367 -90.501856 
L 273.3028 -90.74849 
L 274.633233 -91.011095 
L 275.963667 -91.288053 
L 277.2941 -91.577785 
L 278.624533 -91.878769 
L 279.954967 -92.189554 
L 281.2854 -92.508771 
L 282.615833 -92.835155 
L 283.946267 -93.167549 
L 285.2767 -93.504926 
L 286.607133 -93.846394 
L 287.937567 -94.191206 
L 289.268 -94.538764 
L 290.598433 -94.888627 
L 291.928867 -95.240507 
L 293.2593 -95.594267 
L 294.589733 -95.949915 
L 295.920167 -96.307596 
L 297.2506 -96.667579 
L 298.581033 -97.030243 
L 299.911467 -97.396062 
L 301.2419 -97.765587 
L 302.572333 -98.139429 
L 303.902767 -98.518239 
L 305.2332 -98.902688 
L 306.563633 -99.293455 
L 307.894067 -99.691203 
L 309.2245 -100.096565 
L 310.554933 -100.510131 
L 311.885367 -100.93243 
L 313.2158 -101.363921 
L 314.546233 -101.804979 
L 315.876667 -102.255887 
L 317.2071 -102.716824 
L 318.537533 -103.187858 
L 319.867967 -103.668942 
L 321.1984 -104.159901 
L 322.528833 -104.660431 
L 323.859267 -105.170093 
L 325.1897 -105.688307 
L 326.520133 -106.214348 
L 327.850567 -106.747345 
L 329.181 -107.286273 
L 330.511433 -107.829957 
L 331.841867 -108.377064 
L 333.1723 -108.926107 
L 334.502733 -109.475444 
L 335.833167 -110.023283 
L 337.1636 -110.56768 
L 338.494033 -111.106555 
L 339.824467 -111.637692 
L 341.1549 -112.158758 
L 342.485333 -112.667316 
L 343.815767 -113.160847 
L 345.1462 -113.636769 
L 346.476633 -114.092469 
L 347.807067 -114.525331 
L 349.1375 -114.93277 
L 350.467933 -115.312267 
L 351.798367 -115.661408 
L 353.1288 -115.977917 
L 354.459233 -116.259692 
L 355.789667 -116.504837 
L 357.1201 -116.711686 
L 358.450533 -116.878829 
L 359.780967 -117.00512 
L 361.1114 -117.089689 
L 362.441833 -117.131944 
L 363.772267 -117.131559 
L 365.1027 -117.088471 
L 366.433133 -117.002856 
L 367.763567 -116.875115 
L 369.094 -116.705853 
L 370.424433 -116.49585 
L 371.754867 -116.246043 
L 373.0853 -115.957502 
L 374.415733 -115.631408 
L 375.746167 -115.269035 
L 377.0766 -114.871729 
L 378.407033 -114.440895 
L 379.737467 -113.97798 
L 381.0679 -113.484466 
L 382.398333 -112.961852 
L 383.728767 -112.411655 
L 385.0592 -111.835394 
L 386.389633 -111.234588 
L 387.720067 -110.610752 
L 389.0505 -109.96539 
L 390.380933 -109.299992 
L 391.711367 -108.616036 
L 393.0418 -107.914976 
L 394.372233 -107.198251 
L 395.702667 -106.467274 
L 397.0331 -105.723437 
L 398.363533 -104.968106 
L 399.693967 -104.202619 
L 401.0244 -103.428291 
L 402.354833 -102.646404 
L 403.685267 -101.858214 
L 405.0157 -101.064944 
L 406.346133 -100.267789 
L 407.676567 -99.467909 
L 409.007 -98.666433 
L 410.337433 -97.864455 
L 411.667867 -97.063035 
L 412.9983 -96.263198 
L 414.328733 -95.465933 
L 415.659167 -94.672192 
L 416.9896 -93.88289 
L 418.320033 -93.098905 
L 419.650467 -92.321075 
L 420.9809 -91.550202 
L 422.311333 -90.787045 
L 423.641767 -90.032329 
L 424.9722 -89.286735 
L 426.302633 -88.550906 
L 427.633067 -87.825446 
L 428.9635 -87.110918 
L 430.293933 -86.407847 
L 431.624367 -85.716716 
L 432.9548 -85.037972 
L 434.285233 -84.37202 
L 435.615667 -83.71923 
L 436.9461 -83.079932 
L 438.276533 -82.454419 
L 439.606967 -81.842947 
L 440.9374 -81.245737 
L 442.267833 -80.662975 
L 443.598267 -80.094812 
L 444.9287 -79.541366 
L 446.259133 -79.002723 
L 447.589567 -78.478937 
L 448.92 -77.970033 
L 448.92 -218.991886 
L 448.92 -218.991886 
L 447.589567 -218.553259 
L 446.259133 -218.095267 
L 444.9287 -217.617572 
L 443.598267 -217.119857 
L 442.267833 -216.601827 
L 440.9374 -216.063213 
L 439.606967 -215.50377 
L 438.276533 -214.92328 
L 436.9461 -214.321554 
L 435.615667 -213.698432 
L 434.285233 -213.053787 
L 432.9548 -212.387521 
L 431.624367 -211.699572 
L 430.293933 -210.989911 
L 428.9635 -210.258547 
L 427.633067 -209.505523 
L 426.302633 -208.730922 
L 424.9722 -207.934866 
L 423.641767 -207.117515 
L 422.311333 -206.279071 
L 420.9809 -205.419777 
L 419.650467 -204.539918 
L 418.320033 -203.639824 
L 416.9896 -202.719866 
L 415.659167 -201.780459 
L 414.328733 -200.822066 
L 412.9983 -199.845191 
L 411.667867 -198.850388 
L 410.337433 -197.838252 
L 409.007 -196.809429 
L 407.676567 -195.764609 
L 406.346133 -194.704531 
L 405.0157 -193.629979 
L 403.685267 -192.541785 
L 402.354833 -191.440831 
L 401.0244 -190.328043 
L 399.693967 -189.204397 
L 398.363533 -188.070916 
L 397.0331 -186.928672 
L 395.702667 -185.778784 
L 394.372233 -184.622416 
L 393.0418 -183.460783 
L 391.711367 -182.295144 
L 390.380933 -181.126806 
L 389.0505 -179.957117 
L 387.720067 -178.787473 
L 386.389633 -177.619311 
L 385.0592 -176.454105 
L 383.728767 -175.293369 
L 382.398333 -174.138649 
L 381.0679 -172.991522 
L 379.737467 -171.853585 
L 378.407033 -170.726454 
L 377.0766 -169.611753 
L 375.746167 -168.511104 
L 374.415733 -167.426116 
L 373.0853 -166.35837 
L 371.754867 -165.309406 
L 370.424433 -164.280701 
L 369.094 -163.273654 
L 367.763567 -162.28956 
L 366.433133 -161.329591 
L 365.1027 -160.394771 
L 363.772267 -159.485953 
L 362.441833 -158.603796 
L 361.1114 -157.748748 
L 359.780967 -156.921027 
L 358.450533 -156.120611 
L 357.1201 -155.34723 
L 355.789667 -154.600371 
L 354.459233 -153.879276 
L 353.1288 -153.182967 
L 351.798367 -152.510258 
L 350.467933 -151.859783 
L 349.1375 -151.230029 
L 347.807067 -150.619368 
L 346.476633 -150.02609 
L 345.1462 -149.448444 
L 343.815767 -148.884667 
L 342.485333 -148.333021 
L 341.1549 -147.791818 
L 339.824467 -147.259452 
L 338.494033 -146.734416 
L 337.1636 -146.215323 
L 335.833167 -145.700923 
L 334.502733 -145.190107 
L 333.1723 -144.681925 
L 331.841867 -144.175584 
L 330.511433 -143.670454 
L 329.181 -143.166069 
L 327.850567 -142.662128 
L 326.520133 -142.15849 
L 325.1897 -141.655174 
L 323.859267 -141.152356 
L 322.528833 -140.650362 
L 321.1984 -140.149665 
L 319.867967 -139.65088 
L 318.537533 -139.154757 
L 317.2071 -138.662176 
L 315.876667 -138.174138 
L 314.546233 -137.69176 
L 313.2158 -137.216263 
L 311.885367 -136.748967 
L 310.554933 -136.291277 
L 309.2245 -135.844675 
L 307.894067 -135.410705 
L 306.563633 -134.99096 
L 305.2332 -134.587067 
L 303.902767 -134.200673 
L 302.572333 -133.833423 
L 301.2419 -133.486948 
L 299.911467 -133.16284 
L 298.581033 -132.862638 
L 297.2506 -132.587803 
L 295.920167 -132.339707 
L 294.589733 -132.119606 
L 293.2593 -131.92863 
L 291.928867 -131.767766 
L 290.598433 -131.637845 
L 289.268 -131.539535 
L 287.937567 -131.47333 
L 286.607133 -131.439551 
L 285.2767 -131.438343 
L 283.946267 -131.469677 
L 282.615833 -131.533358 
L 281.2854 -131.629034 
L 279.954967 -131.756199 
L 278.624533 -131.914216 
L 277.2941 -132.102319 
L 275.963667 -132.319635 
L 274.633233 -132.565195 
L 273.3028 -132.837951 
L 271.972367 -133.136786 
L 270.641933 -133.460532 
L 269.3115 -133.807983 
L 267.981067 -134.177903 
L 266.650633 -134.569044 
L 265.3202 -134.980151 
L 263.989767 -135.409975 
L 262.659333 -135.857279 
L 261.3289 -136.320849 
L 259.998467 -136.799499 
L 258.668033 -137.292077 
L 257.3376 -137.797471 
L 256.007167 -138.314615 
L 254.676733 -138.842489 
L 253.3463 -139.38013 
L 252.015867 -139.926627 
L 250.685433 -140.48113 
L 249.355 -141.042849 
L 248.024567 -141.611057 
L 246.694133 -142.185091 
L 245.3637 -142.764353 
L 244.033267 -143.348312 
L 242.702833 -143.936505 
L 241.3724 -144.528535 
L 240.041967 -145.124072 
L 238.711533 -145.722855 
L 237.3811 -146.324688 
L 236.050667 -146.929441 
L 234.720233 -147.53705 
L 233.3898 -148.147514 
L 232.059367 -148.760894 
L 230.728933 -149.377311 
L 229.3985 -149.996944 
L 228.068067 -150.620029 
L 226.737633 -151.246855 
L 225.4072 -151.877761 
L 224.076767 -152.513133 
L 222.746333 -153.153401 
L 221.4159 -153.799036 
L 220.085467 -154.450541 
L 218.755033 -155.108455 
L 217.4246 -155.77334 
L 216.094167 -156.445781 
L 214.763733 -157.126377 
L 213.4333 -157.815736 
L 212.102867 -158.51447 
L 210.772433 -159.223186 
L 209.442 -159.942481 
L 208.111567 -160.672928 
L 206.781133 -161.415078 
L 205.4507 -162.169441 
L 204.120267 -162.936483 
L 202.789833 -163.716616 
L 201.4594 -164.510185 
L 200.128967 -165.317463 
L 198.798533 -166.138639 
L 197.4681 -166.973809 
L 196.137667 -167.822968 
L 194.807233 -168.686001 
L 193.4768 -169.562676 
L 192.146367 -170.452639 
L 190.815933 -171.355408 
L 189.4855 -172.270369 
L 188.155067 -173.19678 
L 186.824633 -174.133765 
L 185.4942 -175.08032 
L 184.163767 -176.035316 
L 182.833333 -176.997511 
L 181.5029 -177.965548 
L 180.172467 -178.937976 
L 178.842033 -179.913255 
L 177.5116 -180.88977 
L 176.181167 -181.865845 
L 174.850733 -182.839758 
L 173.5203 -183.809752 
L 172.189867 -184.774052 
L 170.859433 -185.730878 
L 169.529 -186.678456 
L 168.198567 -187.615034 
L 166.868133 -188.538889 
L 165.5377 -189.44834 
L 164.207267 -190.341755 
L 162.876833 -191.217561 
L 161.5464 -192.074246 
L 160.215967 -192.910371 
L 158.885533 -193.724566 
L 157.5551 -194.515538 
L 156.224667 -195.282075 
L 154.894233 -196.023038 
L 153.5638 -196.737372 
L 152.233367 -197.424097 
L 150.902933 -198.082311 
L 149.5725 -198.711187 
L 148.242067 -199.309969 
L 146.911633 -199.877971 
L 145.5812 -200.414575 
L 144.250767 -200.919224 
L 142.920333 -201.391421 
L 141.5899 -201.830724 
L 140.259467 -202.236745 
L 138.929033 -202.609143 
L 137.5986 -202.947624 
L 136.268167 -203.251934 
L 134.937733 -203.521861 
L 133.6073 -203.757228 
L 132.276867 -203.957896 
L 130.946433 -204.123756 
L 129.616 -204.254733 
L 128.285567 -204.350785 
L 126.955133 -204.411899 
L 125.6247 -204.438095 
L 124.294267 -204.429428 
L 122.963833 -204.385984 
L 121.6334 -204.30789 
L 120.302967 -204.195307 
L 118.972533 -204.04844 
L 117.6421 -203.867541 
L 116.311667 -203.652908 
L 114.981233 -203.404892 
L 113.6508 -203.123903 
L 112.320367 -202.81041 
L 110.989933 -202.464951 
L 109.6595 -202.088134 
L 108.329067 -201.680643 
L 106.998633 -201.243245 
L 105.6682 -200.776794 
L 104.337767 -200.282234 
L 103.007333 -199.760609 
L 101.6769 -199.213063 
L 100.346467 -198.640851 
L 99.016033 -198.045336 
L 97.6856 -197.428001 
L 96.355167 -196.790447 
L 95.024733 -196.134401 
L 93.6943 -195.461713 
L 92.363867 -194.774363 
L 91.033433 -194.074457 
L 89.703 -193.36423 
L 88.372567 -192.646037 
L 87.042133 -191.922353 
L 85.7117 -191.195766 
L 84.381267 -190.468959 
L 83.050833 -189.744709 
L 81.7204 -189.02586 
L 80.389967 -188.315311 
L 79.059533 -187.61599 
L 77.7291 -186.930831 
L 76.398667 -186.262748 
L 75.068233 -185.614602 
L 73.7378 -184.989176 
L 72.407367 -184.389142 
L 71.076933 -183.817037 
L 69.7465 -183.27523 
L 68.416067 -182.765903 
L 67.085633 -182.291032 
L 65.7552 -181.852369 
L 64.424767 -181.451438 
L 63.094333 -181.089521 
L 61.7639 -180.767667 
L 60.433467 -180.486691 
L 59.103033 -180.247183 
L 57.7726 -180.049521 
L 56.442167 -179.893881 
L 55.111733 -179.780257 
L 53.7813 -179.708472 
L 52.450867 -179.678194 
L 51.120433 -179.688957 
L 49.79 -179.74017 
z
"/>
    </defs>
    <g clip-path="url(#p37eac94176)">
     <use xlink:href="#mc4d111eaa0" x="0" y="259.2" style="fill: #d5d9e0"/>
    </g>
   </g>
   <g id="line2d_25">
    <path d="M 49.79 113.3 
L 63.094333 103.204066 
L 71.076933 97.434142 
L 77.7291 92.918537 
L 83.050833 89.553621 
L 88.372567 86.448877 
L 93.6943 83.638318 
L 97.6856 81.742114 
L 101.6769 80.040475 
L 105.6682 78.543892 
L 109.6595 77.261591 
L 113.6508 76.20148 
L 117.6421 75.370093 
L 121.6334 74.772557 
L 125.6247 74.412555 
L 129.616 74.292308 
L 133.6073 74.412555 
L 137.5986 74.772557 
L 141.5899 75.370093 
L 145.5812 76.20148 
L 149.5725 77.261591 
L 153.5638 78.543892 
L 157.5551 80.040475 
L 161.5464 81.742114 
L 165.5377 83.638318 
L 170.859433 86.448877 
L 176.181167 89.553621 
L 181.5029 92.918537 
L 188.155067 97.434142 
L 194.807233 102.221217 
L 204.120267 109.222586 
L 225.4072 125.35404 
L 232.059367 130.093244 
L 238.711533 134.545112 
L 244.033267 137.848336 
L 249.355 140.882604 
L 254.676733 143.614671 
L 258.668033 145.447261 
L 262.659333 147.081652 
L 266.650633 148.507769 
L 270.641933 149.716818 
L 274.633233 150.701345 
L 278.624533 151.455281 
L 282.615833 151.973976 
L 286.607133 152.254234 
L 290.598433 152.294325 
L 294.589733 152.094004 
L 298.581033 151.654505 
L 302.572333 150.978537 
L 306.563633 150.070269 
L 310.554933 148.9353 
L 314.546233 147.580628 
L 318.537533 146.014603 
L 322.528833 144.246883 
L 327.850567 141.59518 
L 333.1723 138.63347 
L 338.494033 135.3942 
L 343.815767 131.912862 
L 350.467933 127.279107 
L 358.450533 121.410155 
L 371.754867 111.258495 
L 383.728767 102.221217 
L 391.711367 96.506756 
L 398.363533 92.054888 
L 403.685267 88.751664 
L 409.007 85.717396 
L 414.328733 82.985329 
L 418.320033 81.152739 
L 422.311333 79.518348 
L 426.302633 78.092231 
L 430.293933 76.883182 
L 434.285233 75.898655 
L 438.276533 75.144719 
L 442.267833 74.626024 
L 446.259133 74.345766 
L 448.92 74.292308 
L 448.92 74.292308 
" clip-path="url(#p37eac94176)" style="fill: none; stroke: #5b7055; stroke-width: 1.4; stroke-linecap: square"/>
   </g>
   <g id="line2d_26">
    <path d="M 49.79 105.289798 
L 55.111733 102.591474 
L 61.7639 98.944504 
L 69.7465 94.291669 
L 85.7117 84.882466 
L 92.363867 81.28247 
L 97.6856 78.683631 
L 101.6769 76.945118 
L 105.6682 75.418136 
L 109.6595 74.128084 
L 113.6508 73.097521 
L 117.6421 72.345722 
L 121.6334 71.888316 
L 125.6247 71.736992 
L 129.616 71.899298 
L 133.6073 72.378528 
L 137.5986 73.173701 
L 141.5899 74.279626 
L 145.5812 75.687057 
L 149.5725 77.382926 
L 153.5638 79.350641 
L 157.5551 81.570457 
L 161.5464 84.019878 
L 166.868133 87.599807 
L 172.189867 91.480017 
L 178.842033 96.649697 
L 188.155067 104.241404 
L 202.789833 116.212988 
L 209.442 121.381161 
L 216.094167 126.237668 
L 221.4159 129.843446 
L 226.737633 133.163234 
L 232.059367 136.169039 
L 236.050667 138.203959 
L 240.041967 140.042762 
L 244.033267 141.680122 
L 248.024567 143.112375 
L 252.015867 144.337426 
L 256.007167 145.354661 
L 259.998467 146.16487 
L 263.989767 146.770165 
L 267.981067 147.173914 
L 271.972367 147.380679 
L 275.963667 147.396156 
L 279.954967 147.227123 
L 283.946267 146.881387 
L 289.268 146.16085 
L 294.589733 145.16524 
L 299.911467 143.920549 
L 305.2332 142.455122 
L 311.885367 140.359302 
L 318.537533 138.028692 
L 327.850567 134.495264 
L 355.789667 123.647396 
L 363.772267 120.891244 
L 370.424433 118.811725 
L 377.0766 116.958259 
L 383.728767 115.347488 
L 390.380933 113.986601 
L 397.0331 112.873945 
L 403.685267 112 
L 410.337433 111.348646 
L 416.9896 110.898622 
L 424.9722 110.5892 
L 434.285233 110.487096 
L 444.9287 110.620531 
L 448.92 110.719041 
L 448.92 110.719041 
" clip-path="url(#p37eac94176)" style="fill: none; stroke: #1f2e4a; stroke-width: 1.8; stroke-linecap: square"/>
   </g>
   <g id="patch_3">
    <path d="M 49.79 214.72 
L 49.79 11.88 
" style="fill: none; stroke: #b9ad96; stroke-width: 0.8; stroke-linejoin: miter; stroke-linecap: square"/>
   </g>
   <g id="patch_4">
    <path d="M 49.79 214.72 
L 448.92 214.72 
" style="fill: none; stroke: #b9ad96; stroke-width: 0.8; stroke-linejoin: miter; stroke-linecap: square"/>
   </g>
   <g id="PathCollection_1">
    <defs>
     <path id="C0_0_871bb06c20" d="M 0 2.54951 
C 0.676138 2.54951 1.324674 2.280877 1.802776 1.802776 
C 2.280877 1.324674 2.54951 0.676138 2.54951 -0 
C 2.54951 -0.676138 2.280877 -1.324674 1.802776 -1.802776 
C 1.324674 -2.280877 0.676138 -2.54951 0 -2.54951 
C -0.676138 -2.54951 -1.324674 -2.280877 -1.802776 -1.802776 
C -2.280877 -1.324674 -2.54951 -0.676138 -2.54951 0 
C -2.54951 0.676138 -2.280877 1.324674 -1.802776 1.802776 
C -1.324674 2.280877 -0.676138 2.54951 0 2.54951 
z
"/>
    </defs>
    <g clip-path="url(#p37eac94176)">
     <use xlink:href="#C0_0_871bb06c20" x="133.323801" y="67.831413" style="fill: none; stroke: #8a6a3a; stroke-width: 1.2"/>
    </g>
    <g clip-path="url(#p37eac94176)">
     <use xlink:href="#C0_0_871bb06c20" x="145.099416" y="75.084691" style="fill: none; stroke: #8a6a3a; stroke-width: 1.2"/>
    </g>
    <g clip-path="url(#p37eac94176)">
     <use xlink:href="#C0_0_871bb06c20" x="309.775536" y="140.761701" style="fill: none; stroke: #8a6a3a; stroke-width: 1.2"/>
    </g>
    <g clip-path="url(#p37eac94176)">
     <use xlink:href="#C0_0_871bb06c20" x="79.139128" y="86.367603" style="fill: none; stroke: #8a6a3a; stroke-width: 1.2"/>
    </g>
    <g clip-path="url(#p37eac94176)">
     <use xlink:href="#C0_0_871bb06c20" x="282.42229" y="149.73837" style="fill: none; stroke: #8a6a3a; stroke-width: 1.2"/>
    </g>
    <g clip-path="url(#p37eac94176)">
     <use xlink:href="#C0_0_871bb06c20" x="109.787564" y="78.548481" style="fill: none; stroke: #8a6a3a; stroke-width: 1.2"/>
    </g>
    <g clip-path="url(#p37eac94176)">
     <use xlink:href="#C0_0_871bb06c20" x="67.398539" y="93.277483" style="fill: none; stroke: #8a6a3a; stroke-width: 1.2"/>
    </g>
    <g clip-path="url(#p37eac94176)">
     <use xlink:href="#C0_0_871bb06c20" x="137.588819" y="83.584906" style="fill: none; stroke: #8a6a3a; stroke-width: 1.2"/>
    </g>
    <g clip-path="url(#p37eac94176)">
     <use xlink:href="#C0_0_871bb06c20" x="97.705481" y="67.679293" style="fill: none; stroke: #8a6a3a; stroke-width: 1.2"/>
    </g>
    <g clip-path="url(#p37eac94176)">
     <use xlink:href="#C0_0_871bb06c20" x="187.930742" y="103.240992" style="fill: none; stroke: #8a6a3a; stroke-width: 1.2"/>
    </g>
    <g clip-path="url(#p37eac94176)">
     <use xlink:href="#C0_0_871bb06c20" x="184.786837" y="99.503335" style="fill: none; stroke: #8a6a3a; stroke-width: 1.2"/>
    </g>
    <g clip-path="url(#p37eac94176)">
     <use xlink:href="#C0_0_871bb06c20" x="358.696169" y="123.05904" style="fill: none; stroke: #8a6a3a; stroke-width: 1.2"/>
    </g>
    <g clip-path="url(#p37eac94176)">
     <use xlink:href="#C0_0_871bb06c20" x="174.837376" y="103.352308" style="fill: none; stroke: #8a6a3a; stroke-width: 1.2"/>
    </g>
    <g clip-path="url(#p37eac94176)">
     <use xlink:href="#C0_0_871bb06c20" x="109.580495" y="68.480626" style="fill: none; stroke: #8a6a3a; stroke-width: 1.2"/>
    </g>
    <g clip-path="url(#p37eac94176)">
     <use xlink:href="#C0_0_871bb06c20" x="160.256624" y="73.096877" style="fill: none; stroke: #8a6a3a; stroke-width: 1.2"/>
    </g>
    <g clip-path="url(#p37eac94176)">
     <use xlink:href="#C0_0_871bb06c20" x="334.356729" y="136.737155" style="fill: none; stroke: #8a6a3a; stroke-width: 1.2"/>
    </g>
    <g clip-path="url(#p37eac94176)">
     <use xlink:href="#C0_0_871bb06c20" x="297.430669" y="142.320799" style="fill: none; stroke: #8a6a3a; stroke-width: 1.2"/>
    </g>
    <g clip-path="url(#p37eac94176)">
     <use xlink:href="#C0_0_871bb06c20" x="151.375482" y="77.127866" style="fill: none; stroke: #8a6a3a; stroke-width: 1.2"/>
    </g>
    <g clip-path="url(#p37eac94176)">
     <use xlink:href="#C0_0_871bb06c20" x="344.896152" y="123.380711" style="fill: none; stroke: #8a6a3a; stroke-width: 1.2"/>
    </g>
    <g clip-path="url(#p37eac94176)">
     <use xlink:href="#C0_0_871bb06c20" x="84.021722" y="91.154167" style="fill: none; stroke: #8a6a3a; stroke-width: 1.2"/>
    </g>
    <g clip-path="url(#p37eac94176)">
     <use xlink:href="#C0_0_871bb06c20" x="83.171176" y="95.495797" style="fill: none; stroke: #8a6a3a; stroke-width: 1.2"/>
    </g>
   </g>
   <g id="legend_1">
    <g id="patch_5">
     <path d="M 57.89 191.537969 
L 75.89 191.537969 
L 75.89 185.237969 
L 57.89 185.237969 
z
" style="fill: #d5d9e0"/>
    </g>
    <g id="text_15">
     <text style="font-size: 9px; font-family: 'Source Sans 3','Source Sans Pro','Helvetica Neue',Arial,sans-serif; text-anchor: start; fill: #1e1c19" x="83.09" y="191.537969" transform="rotate(-0 83.09 191.537969)">±2 predictive sd</text>
    </g>
    <g id="line2d_27">
     <path d="M 57.89 201.598281 
L 66.89 201.598281 
L 75.89 201.598281 
" style="fill: none; stroke: #5b7055; stroke-width: 1.4; stroke-linecap: square"/>
    </g>
    <g id="text_16">
     <text style="font-size: 9px; font-family: 'Source Sans 3','Source Sans Pro','Helvetica Neue',Arial,sans-serif; text-anchor: start; fill: #1e1c19" x="83.09" y="204.748281" transform="rotate(-0 83.09 204.748281)">sin(2πx)</text>
    </g>
    <g id="line2d_28">
     <path d="M 175.285156 188.387969 
L 184.285156 188.387969 
L 193.285156 188.387969 
" style="fill: none; stroke: #1f2e4a; stroke-width: 1.8; stroke-linecap: square"/>
    </g>
    <g id="text_17">
     <text style="font-size: 9px; font-family: 'Source Sans 3','Source Sans Pro','Helvetica Neue',Arial,sans-serif; text-anchor: start; fill: #1e1c19" x="200.485156" y="191.537969" transform="rotate(-0 200.485156 191.537969)">predictive mean</text>
    </g>
    <g id="PathCollection_2">
     <path d="M 184.285156 204.935291 
C 184.961294 204.935291 185.60983 204.666659 186.087932 204.188557 
C 186.566034 203.710455 186.834666 203.061919 186.834666 202.385781 
C 186.834666 201.709643 186.566034 201.061107 186.087932 200.583006 
C 185.60983 200.104904 184.961294 199.836271 184.285156 199.836271 
C 183.609018 199.836271 182.960482 200.104904 182.482381 200.583006 
C 182.004279 201.061107 181.735646 201.709643 181.735646 202.385781 
C 181.735646 203.061919 182.004279 203.710455 182.482381 204.188557 
C 182.960482 204.666659 183.609018 204.935291 184.285156 204.935291 
L 184.285156 204.935291 
z
" style="fill: none; stroke: #8a6a3a; stroke-width: 1.2"/>
    </g>
    <g id="text_18">
     <text style="font-size: 9px; font-family: 'Source Sans 3','Source Sans Pro','Helvetica Neue',Arial,sans-serif; text-anchor: start; fill: #1e1c19" x="200.485156" y="204.748281" transform="rotate(-0 200.485156 204.748281)">training data</text>
    </g>
   </g>
  </g>
 </g>
 <defs>
  <clipPath id="p37eac94176">
   <rect x="49.79" y="11.88" width="399.13" height="202.84"/>
  </clipPath>
 </defs>
</svg>
