<?xml version="1.0" encoding="utf-8" standalone="no"?>
<!DOCTYPE svg PUBLIC "-//W3C//DTD SVG 1.1//EN"
  "http://www.w3.org/Graphics/SVG/1.1/DTD/svg11.dtd">
<svg xmlns:xlink="http://www.w3.org/1999/xlink" width="532.8pt" height="280.8pt" viewBox="0 0 532.8 280.8" xmlns="http://www.w3.org/2000/svg" version="1.1">
 <metadata>
  <rdf:RDF xmlns:dc="http://purl.org/dc/elements/1.1/" xmlns:cc="http://creativecommons.org/ns#" xmlns:rdf="http://www.w3.org/1999/02/22-rdf-syntax-ns#">
   <cc:Work>
    <dc:type rdf:resource="http://purl.org/dc/dcmitype/StillImage"/>
    
    <dc:format>image/svg+xml</dc:format>
    <dc:creator>
     <cc:Agent>
      <dc:title>Matplotlib v3.10.9, https://matplotlib.org/</dc:title>
     </cc:Agent>
    </dc:creator>
   </cc:Work>
  </rdf:RDF>
 </metadata>
 <defs>
  <style type="text/css">*{stroke-linejoin: round; stroke-linecap: butt}</style>
 </defs>
 <g id="figure_1">
  <g id="patch_1">
   <path d="M 0 280.8 
L 532.8 280.8 
L 532.8 0 
L 0 0 
L 0 280.8 
z
" style="fill: none; opacity: 0"/>
  </g>
  <g id="axes_1">
   <g id="patch_2">
    <path d="M 51.06125 236.32 
L 520.92 236.32 
L 520.92 11.88 
L 51.06125 11.88 
L 51.06125 236.32 
z
" style="fill: none"/>
   </g>
   <g id="matplotlib.axis_1">
    <g id="xtick_1">
     <g id="line2d_1">
      <defs>
       <path id="mf084719df9" d="M 0 0 
L 0 3.5 
" style="stroke: #5d574d; stroke-width: 0.8"/>
      </defs>
      <g>
       <use xlink:href="#mf084719df9" x="61.739858" y="236.32" style="fill: #5d574d; stroke: #5d574d; stroke-width: 0.8"/>
      </g>
     </g>
     <g id="text_1">
      <text style="font-size: 11px; font-family: 'Source Sans 3','Source Sans Pro','Helvetica Neue',Arial,sans-serif; text-anchor: middle; fill: #5d574d" x="61.739858" y="251.678281" transform="rotate(-0 61.739858 251.678281)">−4</text>
     </g>
    </g>
    <g id="xtick_2">
     <g id="line2d_2">
      <g>
       <use xlink:href="#mf084719df9" x="115.132898" y="236.32" style="fill: #5d574d; stroke: #5d574d; stroke-width: 0.8"/>
      </g>
     </g>
     <g id="text_2">
      <text style="font-size: 11px; font-family: 'Source Sans 3','Source Sans Pro','Helvetica Neue',Arial,sans-serif; text-anchor: middle; fill: #5d574d" x="115.132898" y="251.678281" transform="rotate(-0 115.132898 251.678281)">−3</text>
     </g>
    </g>
    <g id="xtick_3">
     <g id="line2d_3">
      <g>
       <use xlink:href="#mf084719df9" x="168.525938" y="236.32" style="fill: #5d574d; stroke: #5d574d; stroke-width: 0.8"/>
      </g>
     </g>
     <g id="text_3">
      <text style="font-size: 11px; font-family: 'Source Sans 3','Source Sans Pro','Helvetica Neue',Arial,sans-serif; text-anchor: middle; fill: #5d574d" x="168.525938" y="251.678281" transform="rotate(-0 168.525938 251.678281)">−2</text>
     </g>
    </g>
    <g id="xtick_4">
     <g id="line2d_4">
      <g>
       <use xlink:href="#mf084719df9" x="221.918977" y="236.32" style="fill: #5d574d; stroke: #5d574d; stroke-width: 0.8"/>
      </g>
     </g>
     <g id="text_4">
      <text style="font-size: 11px; font-family: 'Source Sans 3','Source Sans Pro','Helvetica Neue',Arial,sans-serif; text-anchor: middle; fill: #5d574d" x="221.918977" y="251.678281" transform="rotate(-0 221.918977 251.678281)">−1</text>
     </g>
    </g>
    <g id="xtick_5">
     <g id="line2d_5">
      <g>
       <use xlink:href="#mf084719df9" x="275.312017" y="236.32" style="fill: #5d574d; stroke: #5d574d; stroke-width: 0.8"/>
      </g>
     </g>
     <g id="text_5">
      <text style="font-size: 11px; font-family: 'Source Sans 3','Source Sans Pro','Helvetica Neue',Arial,sans-serif; text-anchor: middle; fill: #5d574d" x="275.312017" y="251.678281" transform="rotate(-0 275.312017 251.678281)">0</text>
     </g>
    </g>
    <g id="xtick_6">
     <g id="line2d_6">
      <g>
       <use xlink:href="#mf084719df9" x="328.705057" y="236.32" style="fill: #5d574d; stroke: #5d574d; stroke-width: 0.8"/>
      </g>
     </g>
     <g id="text_6">
      <text style="font-size: 11px; font-family: 'Source Sans 3','Source Sans Pro','Helvetica Neue',Arial,sans-serif; text-anchor: middle; fill: #5d574d" x="328.705057" y="251.678281" transform="rotate(-0 328.705057 251.678281)">1</text>
     </g>
    </g>
    <g id="xtick_7">
     <g id="line2d_7">
      <g>
       <use xlink:href="#mf084719df9" x="382.098097" y="236.32" style="fill: #5d574d; stroke: #5d574d; stroke-width: 0.8"/>
      </g>
     </g>
     <g id="text_7">
      <text style="font-size: 11px; font-family: 'Source Sans 3','Source Sans Pro','Helvetica Neue',Arial,sans-serif; text-anchor: middle; fill: #5d574d" x="382.098097" y="251.678281" transform="rotate(-0 382.098097 251.678281)">2</text>
     </g>
    </g>
    <g id="xtick_8">
     <g id="line2d_8">
      <g>
       <use xlink:href="#mf084719df9" x="435.491136" y="236.32" style="fill: #5d574d; stroke: #5d574d; stroke-width: 0.8"/>
      </g>
     </g>
     <g id="text_8">
      <text style="font-size: 11px; font-family: 'Source Sans 3','Source Sans Pro','Helvetica Neue',Arial,sans-serif; text-anchor: middle; fill: #5d574d" x="435.491136" y="251.678281" transform="rotate(-0 435.491136 251.678281)">3</text>
     </g>
    </g>
    <g id="xtick_9">
     <g id="line2d_9">
      <g>
       <use xlink:href="#mf084719df9" x="488.884176" y="236.32" style="fill: #5d574d; stroke: #5d574d; stroke-width: 0.8"/>
      </g>
     </g>
     <g id="text_9">
      <text style="font-size: 11px; font-family: 'Source Sans 3','Source Sans Pro','Helvetica Neue',Arial,sans-serif; text-anchor: middle; fill: #5d574d" x="488.884176" y="251.678281" transform="rotate(-0 488.884176 251.678281)">4</text>
     </g>
    </g>
    <g id="text_10">
     <text style="font-size: 11px; font-family: 'Source Sans 3','Source Sans Pro','Helvetica Neue',Arial,sans-serif; text-anchor: middle; fill: #5d574d" x="285.990625" y="266.324219" transform="rotate(-0 285.990625 266.324219)">z</text>
    </g>
   </g>
   <g id="matplotlib.axis_2">
    <g id="ytick_1">
     <g id="line2d_10">
      <defs>
       <path id="m36a587bb81" d="M 0 0 
L -3.5 0 
" style="stroke: #5d574d; stroke-width: 0.8"/>
      </defs>
      <g>
       <use xlink:href="#m36a587bb81" x="51.06125" y="164.277531" style="fill: #5d574d; stroke: #5d574d; stroke-width: 0.8"/>
      </g>
     </g>
     <g id="text_11">
      <text style="font-size: 11px; font-family: 'Source Sans 3','Source Sans Pro','Helvetica Neue',Arial,sans-serif; text-anchor: end; fill: #5d574d" x="44.06125" y="168.456671" transform="rotate(-0 44.06125 168.456671)">0.0</text>
     </g>
    </g>
    <g id="ytick_2">
     <g id="line2d_11">
      <g>
       <use xlink:href="#m36a587bb81" x="51.06125" y="95.005926" style="fill: #5d574d; stroke: #5d574d; stroke-width: 0.8"/>
      </g>
     </g>
     <g id="text_12">
      <text style="font-size: 11px; font-family: 'Source Sans 3','Source Sans Pro','Helvetica Neue',Arial,sans-serif; text-anchor: end; fill: #5d574d" x="44.06125" y="99.185067" transform="rotate(-0 44.06125 99.185067)">0.5</text>
     </g>
    </g>
    <g id="ytick_3">
     <g id="line2d_12">
      <g>
       <use xlink:href="#m36a587bb81" x="51.06125" y="25.734321" style="fill: #5d574d; stroke: #5d574d; stroke-width: 0.8"/>
      </g>
     </g>
     <g id="text_13">
      <text style="font-size: 11px; font-family: 'Source Sans 3','Source Sans Pro','Helvetica Neue',Arial,sans-serif; text-anchor: end; fill: #5d574d" x="44.06125" y="29.913462" transform="rotate(-0 44.06125 29.913462)">1.0</text>
     </g>
    </g>
    <g id="text_14">
     <text style="font-size: 11px; font-family: 'Source Sans 3','Source Sans Pro','Helvetica Neue',Arial,sans-serif; text-anchor: middle; fill: #5d574d" x="20.280156" y="124.1" transform="rotate(-90 20.280156 124.1)">p̃(z)</text>
    </g>
   </g>
   <g id="line2d_13">
    <path d="M 51.06125 164.27198 
L 75.759707 164.145097 
L 85.168644 163.89829 
L 91.637287 163.533973 
L 96.929814 163.026177 
L 101.046223 162.436699 
L 105.162633 161.613878 
L 108.690984 160.669166 
L 111.631277 159.673407 
L 114.571569 158.452139 
L 117.511862 156.968752 
L 120.452154 155.184553 
L 122.804388 153.513842 
L 125.156622 151.604667 
L 127.508856 149.437082 
L 129.86109 146.992191 
L 132.213324 144.252765 
L 134.565559 141.203917 
L 136.917793 137.833817 
L 139.270027 134.134431 
L 142.210319 129.04229 
L 145.150612 123.435413 
L 148.090904 117.333438 
L 151.619255 109.409514 
L 155.147606 100.921243 
L 159.852074 88.961165 
L 171.613245 58.676317 
L 175.141596 50.438614 
L 178.081888 44.20252 
L 180.434122 39.725979 
L 182.786356 35.776847 
L 184.550532 33.197343 
L 186.314707 30.970644 
L 188.078883 29.116282 
L 189.843059 27.650675 
L 191.019176 26.896174 
L 192.195293 26.323328 
L 193.37141 25.934412 
L 194.547527 25.730963 
L 195.723644 25.713766 
L 196.899761 25.882852 
L 198.075878 26.237496 
L 199.251995 26.776223 
L 200.428112 27.496816 
L 202.192287 28.91207 
L 203.956463 30.716835 
L 205.720638 32.89483 
L 207.484814 35.426622 
L 209.248989 38.289911 
L 211.601223 42.580021 
L 213.953457 47.350225 
L 216.89375 53.880858 
L 220.422101 62.358767 
L 225.126569 74.329892 
L 234.535505 98.406993 
L 238.651915 108.199934 
L 242.180266 115.95951 
L 245.120559 121.897054 
L 248.060851 127.309373 
L 250.413085 131.243945 
L 252.765319 134.820396 
L 255.117553 138.038189 
L 257.469787 140.901427 
L 259.822021 143.418128 
L 262.174255 145.599499 
L 264.526489 147.45922 
L 266.878723 149.012776 
L 269.230957 150.276836 
L 271.583191 151.268705 
L 273.935426 152.00584 
L 276.28766 152.505455 
L 278.639894 152.784198 
L 280.992128 152.857901 
L 283.344362 152.741417 
L 286.284654 152.349219 
L 289.224947 151.705657 
L 292.165239 150.832389 
L 295.105532 149.748525 
L 298.633883 148.193526 
L 302.162234 146.385174 
L 305.690585 144.346391 
L 309.806995 141.704855 
L 313.923404 138.811331 
L 318.627872 135.239108 
L 323.920399 130.947334 
L 330.977101 124.92296 
L 345.090505 112.78004 
L 350.383032 108.561906 
L 354.499441 105.537686 
L 358.615851 102.801785 
L 362.144202 100.727645 
L 365.672553 98.936679 
L 368.612846 97.680514 
L 371.553138 96.653835 
L 374.493431 95.867919 
L 377.433723 95.331476 
L 380.374016 95.050489 
L 383.314309 95.028104 
L 386.254601 95.264575 
L 389.194894 95.757253 
L 392.135186 96.50064 
L 395.075479 97.486491 
L 398.015771 98.703964 
L 400.956064 100.139822 
L 404.484415 102.129305 
L 408.012766 104.380867 
L 412.129176 107.294406 
L 416.833644 110.93252 
L 422.12617 115.31269 
L 430.947048 122.957405 
L 440.944043 131.549586 
L 446.824628 136.314524 
L 452.117154 140.315606 
L 456.821622 143.600496 
L 461.52609 146.60526 
L 466.230559 149.317449 
L 470.346968 151.448145 
L 474.463378 153.355815 
L 479.167846 155.27249 
L 483.872314 156.923625 
L 488.576782 158.329298 
L 493.28125 159.512175 
L 498.573777 160.606477 
L 503.866303 161.483585 
L 509.746888 162.243807 
L 516.80359 162.915473 
L 520.92 163.210163 
L 520.92 163.210163 
" clip-path="url(#pcc223ed6ff)" style="fill: none; stroke: #1f2e4a; stroke-width: 1.6; stroke-linecap: square"/>
   </g>
   <g id="line2d_14">
    <path d="M 51.06125 164.277531 
L 520.92 164.277531 
" clip-path="url(#pcc223ed6ff)" style="fill: none; stroke: #5d574d; stroke-width: 0.8; stroke-linecap: square"/>
   </g>
   <g id="line2d_15">
    <path d="M 51.06125 122.714568 
L 520.92 122.714568 
" clip-path="url(#pcc223ed6ff)" style="fill: none; stroke-dasharray: 3.2,2.4; stroke-dashoffset: 0; stroke: #5d574d; stroke-width: 0.8"/>
   </g>
   <g id="line2d_16">
    <path d="M 145.73867 122.714568 
L 245.120559 122.714568 
M 333.917394 122.714568 
L 430.358989 122.714568 
L 430.358989 122.714568 
" clip-path="url(#pcc223ed6ff)" style="fill: none; stroke: #1f2e4a; stroke-width: 4"/>
   </g>
   <g id="line2d_17">
    <path d="M 221.918977 164.277531 
L 221.918977 66.108412 
" clip-path="url(#pcc223ed6ff)" style="fill: none; stroke-dasharray: 0.8,1.32; stroke-dashoffset: 0; stroke: #5d574d; stroke-width: 0.8"/>
   </g>
   <g id="line2d_18">
    <defs>
     <path id="me41beea99c" d="M 0 2.5 
C 0.663008 2.5 1.29895 2.236584 1.767767 1.767767 
C 2.236584 1.29895 2.5 0.663008 2.5 0 
C 2.5 -0.663008 2.236584 -1.29895 1.767767 -1.767767 
C 1.29895 -2.236584 0.663008 -2.5 0 -2.5 
C -0.663008 -2.5 -1.29895 -2.236584 -1.767767 -1.767767 
C -2.236584 -1.29895 -2.5 -0.663008 -2.5 0 
C -2.5 0.663008 -2.236584 1.29895 -1.767767 1.767767 
C -1.29895 2.236584 -0.663008 2.5 0 2.5 
z
" style="stroke: #1f2e4a; stroke-width: 1.3"/>
    </defs>
    <g clip-path="url(#pcc223ed6ff)">
     <use xlink:href="#me41beea99c" x="221.918977" y="164.277531" style="fill: #ffffff; stroke: #1f2e4a; stroke-width: 1.3"/>
    </g>
   </g>
   <g id="line2d_19">
    <defs>
     <path id="m6c9c2366e7" d="M -4 4 
L 4 -4 
M -4 -4 
L 4 4 
" style="stroke: #9a4b3c; stroke-width: 1.6"/>
    </defs>
    <g clip-path="url(#pcc223ed6ff)">
     <use xlink:href="#m6c9c2366e7" x="251.285149" y="122.714568" style="fill: #9a4b3c; stroke: #9a4b3c; stroke-width: 1.6"/>
    </g>
   </g>
   <g id="line2d_20">
    <defs>
     <path id="m58bee56401" d="M 0 3.5 
C 0.928211 3.5 1.81853 3.131218 2.474874 2.474874 
C 3.131218 1.81853 3.5 0.928211 3.5 0 
C 3.5 -0.928211 3.131218 -1.81853 2.474874 -2.474874 
C 1.81853 -3.131218 0.928211 -3.5 0 -3.5 
C -0.928211 -3.5 -1.81853 -3.131218 -2.474874 -2.474874 
C -3.131218 -1.81853 -3.5 -0.928211 -3.5 0 
C -3.5 0.928211 -3.131218 1.81853 -2.474874 2.474874 
C -1.81853 3.131218 -0.928211 3.5 0 3.5 
z
" style="stroke: #1f2e4a"/>
    </defs>
    <g clip-path="url(#pcc223ed6ff)">
     <use xlink:href="#m58bee56401" x="173.865241" y="122.714568" style="fill: #1f2e4a; stroke: #1f2e4a"/>
    </g>
   </g>
   <g id="line2d_21">
    <defs>
     <path id="mcac5764700" d="M 0 2.5 
C 0.663008 2.5 1.29895 2.236584 1.767767 1.767767 
C 2.236584 1.29895 2.5 0.663008 2.5 0 
C 2.5 -0.663008 2.236584 -1.29895 1.767767 -1.767767 
C 1.29895 -2.236584 0.663008 -2.5 0 -2.5 
C -0.663008 -2.5 -1.29895 -2.236584 -1.767767 -1.767767 
C -2.236584 -1.29895 -2.5 -0.663008 -2.5 0 
C -2.5 0.663008 -2.236584 1.29895 -1.767767 1.767767 
C -1.29895 2.236584 -0.663008 2.5 0 2.5 
z
" style="stroke: #1f2e4a"/>
    </defs>
    <g clip-path="url(#pcc223ed6ff)">
     <use xlink:href="#mcac5764700" x="173.865241" y="164.277531" style="fill: #1f2e4a; stroke: #1f2e4a"/>
    </g>
   </g>
   <g id="line2d_22">
    <path d="M 173.865241 164.277531 
L 173.865241 122.714568 
" clip-path="url(#pcc223ed6ff)" style="fill: none; stroke-dasharray: 0.8,1.32; stroke-dashoffset: 0; stroke: #1f2e4a; stroke-width: 0.8"/>
   </g>
   <g id="line2d_23">
    <path d="M 205.901065 186.444444 
L 259.294105 186.444444 
" clip-path="url(#pcc223ed6ff)" style="fill: none; stroke: #8a6a3a; stroke-width: 1.6; stroke-linecap: square"/>
   </g>
   <g id="line2d_24">
    <path d="M 205.901065 189.908025 
L 205.901065 182.980864 
" clip-path="url(#pcc223ed6ff)" style="fill: none; stroke: #8a6a3a; stroke-width: 1.6; stroke-linecap: square"/>
   </g>
   <g id="line2d_25">
    <path d="M 259.294105 189.908025 
L 259.294105 182.980864 
" clip-path="url(#pcc223ed6ff)" style="fill: none; stroke: #8a6a3a; stroke-width: 1.6; stroke-linecap: square"/>
   </g>
   <g id="line2d_26">
    <path d="M 99.114986 205.840494 
L 259.294105 205.840494 
" clip-path="url(#pcc223ed6ff)" style="fill: none; stroke: #8a6a3a; stroke-width: 1.6; stroke-linecap: square"/>
   </g>
   <g id="line2d_27">
    <path d="M 99.114986 209.304074 
L 99.114986 202.376914 
" clip-path="url(#pcc223ed6ff)" style="fill: none; stroke: #8a6a3a; stroke-width: 1.6; stroke-linecap: square"/>
   </g>
   <g id="line2d_28">
    <path d="M 259.294105 209.304074 
L 259.294105 202.376914 
" clip-path="url(#pcc223ed6ff)" style="fill: none; stroke: #8a6a3a; stroke-width: 1.6; stroke-linecap: square"/>
   </g>
   <g id="line2d_29">
    <path d="M 99.114986 225.236543 
L 251.285149 225.236543 
" clip-path="url(#pcc223ed6ff)" style="fill: none; stroke: #8a6a3a; stroke-width: 1.6; stroke-linecap: square"/>
   </g>
   <g id="line2d_30">
    <path d="M 99.114986 228.700123 
L 99.114986 221.772963 
" clip-path="url(#pcc223ed6ff)" style="fill: none; stroke: #8a6a3a; stroke-width: 1.6; stroke-linecap: square"/>
   </g>
   <g id="line2d_31">
    <path d="M 251.285149 228.700123 
L 251.285149 221.772963 
" clip-path="url(#pcc223ed6ff)" style="fill: none; stroke: #8a6a3a; stroke-width: 1.6; stroke-linecap: square"/>
   </g>
   <g id="line2d_32">
    <path d="M 152.508026 208.334272 
L 152.508026 203.346716 
" clip-path="url(#pcc223ed6ff)" style="fill: none; stroke: #8a6a3a; stroke-linecap: square"/>
   </g>
   <g id="patch_3">
    <path d="M 51.06125 164.277531 
L 51.06125 11.88 
" style="fill: none; stroke: #b9ad96; stroke-width: 0.8; stroke-linejoin: miter; stroke-linecap: square"/>
   </g>
   <g id="patch_4">
    <path d="M 51.06125 236.32 
L 520.92 236.32 
" style="fill: none; stroke: #b9ad96; stroke-width: 0.8; stroke-linejoin: miter; stroke-linecap: square"/>
   </g>
   <g id="text_15">
    <text style="font-size: 11px; font-family: 'Source Sans 3','Source Sans Pro','Helvetica Neue',Arial,sans-serif; text-anchor: end; fill: #5d574d" x="518.250348" y="116.270615" transform="rotate(-0 518.250348 116.270615)">u</text>
   </g>
   <g id="text_16">
    <text style="font-size: 10px; font-family: 'Source Sans 3','Source Sans Pro','Helvetica Neue',Arial,sans-serif; text-anchor: middle; fill: #1f2e4a" x="382.098097" y="135.162018" transform="rotate(-0 382.098097 135.162018)">slice</text>
   </g>
   <g id="text_17">
    <text style="font-size: 10px; font-family: 'Source Sans 3','Source Sans Pro','Helvetica Neue',Arial,sans-serif; text-anchor: middle; fill: #1e1c19" x="221.918977" y="178.110413" transform="rotate(-0 221.918977 178.110413)">z(τ)</text>
   </g>
   <g id="text_18">
    <text style="font-size: 9px; font-family: 'Source Sans 3','Source Sans Pro','Helvetica Neue',Arial,sans-serif; fill: #9a4b3c" transform="translate(255.556592 103.837657)">1st candidate:</text>
    <text style="font-size: 9px; font-family: 'Source Sans 3','Source Sans Pro','Helvetica Neue',Arial,sans-serif; fill: #9a4b3c" transform="translate(255.556592 113.915689)">rejected</text>
   </g>
   <g id="text_19">
    <text style="font-size: 9px; font-family: 'Source Sans 3','Source Sans Pro','Helvetica Neue',Arial,sans-serif; fill: #1f2e4a" transform="translate(100.813594 103.837657)">2nd candidate:</text>
    <text style="font-size: 9px; font-family: 'Source Sans 3','Source Sans Pro','Helvetica Neue',Arial,sans-serif; fill: #1f2e4a" transform="translate(127.082344 113.915689)">accepted</text>
   </g>
   <g id="text_20">
    <text style="font-size: 9.5px; font-family: 'Source Sans 3','Source Sans Pro','Helvetica Neue',Arial,sans-serif; text-anchor: start; fill: #5d574d" x="285.990625" y="189.065851" transform="rotate(-0 285.990625 189.065851)">initial interval, width w</text>
   </g>
   <g id="text_21">
    <text style="font-size: 9.5px; font-family: 'Source Sans 3','Source Sans Pro','Helvetica Neue',Arial,sans-serif; text-anchor: start; fill: #5d574d" x="285.990625" y="208.4619" transform="rotate(-0 285.990625 208.4619)">after stepping out</text>
   </g>
   <g id="text_22">
    <text style="font-size: 9.5px; font-family: 'Source Sans 3','Source Sans Pro','Helvetica Neue',Arial,sans-serif; text-anchor: start; fill: #5d574d" x="285.990625" y="227.857949" transform="rotate(-0 285.990625 227.857949)">after shrinking</text>
   </g>
  </g>
 </g>
 <defs>
  <clipPath id="pcc223ed6ff">
   <rect x="51.06125" y="11.88" width="469.85875" height="224.44"/>
  </clipPath>
 </defs>
</svg>
