<?xml version="1.0" encoding="utf-8" standalone="no"?>
<!DOCTYPE svg PUBLIC "-//W3C//DTD SVG 1.1//EN"
  "http://www.w3.org/Graphics/SVG/1.1/DTD/svg11.dtd">
<svg xmlns:xlink="http://www.w3.org/1999/xlink" width="547.2pt" height="237.6pt" viewBox="0 0 547.2 237.6" xmlns="http://www.w3.org/2000/svg" version="1.1">
 <metadata>
  <rdf:RDF xmlns:dc="http://purl.org/dc/elements/1.1/" xmlns:cc="http://creativecommons.org/ns#" xmlns:rdf="http://www.w3.org/1999/02/22-rdf-syntax-ns#">
   <cc:Work>
    <dc:type rdf:resource="http://purl.org/dc/dcmitype/StillImage"/>
    
    <dc:format>image/svg+xml</dc:format>
    <dc:creator>
     <cc:Agent>
      <dc:title>Matplotlib v3.10.9, https://matplotlib.org/</dc:title>
     </cc:Agent>
    </dc:creator>
   </cc:Work>
  </rdf:RDF>
 </metadata>
 <defs>
  <style type="text/css">*{stroke-linejoin: round; stroke-linecap: butt}</style>
 </defs>
 <g id="figure_1">
  <g id="patch_1">
   <path d="M 0 237.6 
L 547.2 237.6 
L 547.2 0 
L 0 0 
L 0 237.6 
z
" style="fill: none; opacity: 0"/>
  </g>
  <g id="axes_1">
   <g id="patch_2">
    <path d="M 51.14 192.4 
L 263.3175 192.4 
L 263.3175 12.612706 
L 51.14 12.612706 
L 51.14 192.4 
z
" style="fill: none"/>
   </g>
   <g id="matplotlib.axis_1">
    <g id="xtick_1">
     <g id="line2d_1">
      <path d="M 51.14 192.4 
L 51.14 12.612706 
" clip-path="url(#p2d91ed6732)" style="fill: none; stroke: #d9d0bf; stroke-width: 0.6; stroke-linecap: square"/>
     </g>
     <g id="line2d_2">
      <defs>
       <path id="mc7e1a49cba" d="M 0 0 
L 0 3.5 
" style="stroke: #5d574d; stroke-width: 0.8"/>
      </defs>
      <g>
       <use xlink:href="#mc7e1a49cba" x="51.14" y="192.4" style="fill: #5d574d; stroke: #5d574d; stroke-width: 0.8"/>
      </g>
     </g>
     <g id="text_1">
      <text style="font-size: 11px; font-family: 'Source Sans 3','Source Sans Pro','Helvetica Neue',Arial,sans-serif; text-anchor: middle; fill: #5d574d" x="51.14" y="207.758281" transform="rotate(-0 51.14 207.758281)">0.0</text>
     </g>
    </g>
    <g id="xtick_2">
     <g id="line2d_3">
      <path d="M 93.5755 192.4 
L 93.5755 12.612706 
" clip-path="url(#p2d91ed6732)" style="fill: none; stroke: #d9d0bf; stroke-width: 0.6; stroke-linecap: square"/>
     </g>
     <g id="line2d_4">
      <g>
       <use xlink:href="#mc7e1a49cba" x="93.5755" y="192.4" style="fill: #5d574d; stroke: #5d574d; stroke-width: 0.8"/>
      </g>
     </g>
     <g id="text_2">
      <text style="font-size: 11px; font-family: 'Source Sans 3','Source Sans Pro','Helvetica Neue',Arial,sans-serif; text-anchor: middle; fill: #5d574d" x="93.5755" y="207.758281" transform="rotate(-0 93.5755 207.758281)">0.2</text>
     </g>
    </g>
    <g id="xtick_3">
     <g id="line2d_5">
      <path d="M 136.011 192.4 
L 136.011 12.612706 
" clip-path="url(#p2d91ed6732)" style="fill: none; stroke: #d9d0bf; stroke-width: 0.6; stroke-linecap: square"/>
     </g>
     <g id="line2d_6">
      <g>
       <use xlink:href="#mc7e1a49cba" x="136.011" y="192.4" style="fill: #5d574d; stroke: #5d574d; stroke-width: 0.8"/>
      </g>
     </g>
     <g id="text_3">
      <text style="font-size: 11px; font-family: 'Source Sans 3','Source Sans Pro','Helvetica Neue',Arial,sans-serif; text-anchor: middle; fill: #5d574d" x="136.011" y="207.758281" transform="rotate(-0 136.011 207.758281)">0.4</text>
     </g>
    </g>
    <g id="xtick_4">
     <g id="line2d_7">
      <path d="M 178.4465 192.4 
L 178.4465 12.612706 
" clip-path="url(#p2d91ed6732)" style="fill: none; stroke: #d9d0bf; stroke-width: 0.6; stroke-linecap: square"/>
     </g>
     <g id="line2d_8">
      <g>
       <use xlink:href="#mc7e1a49cba" x="178.4465" y="192.4" style="fill: #5d574d; stroke: #5d574d; stroke-width: 0.8"/>
      </g>
     </g>
     <g id="text_4">
      <text style="font-size: 11px; font-family: 'Source Sans 3','Source Sans Pro','Helvetica Neue',Arial,sans-serif; text-anchor: middle; fill: #5d574d" x="178.4465" y="207.758281" transform="rotate(-0 178.4465 207.758281)">0.6</text>
     </g>
    </g>
    <g id="xtick_5">
     <g id="line2d_9">
      <path d="M 220.882 192.4 
L 220.882 12.612706 
" clip-path="url(#p2d91ed6732)" style="fill: none; stroke: #d9d0bf; stroke-width: 0.6; stroke-linecap: square"/>
     </g>
     <g id="line2d_10">
      <g>
       <use xlink:href="#mc7e1a49cba" x="220.882" y="192.4" style="fill: #5d574d; stroke: #5d574d; stroke-width: 0.8"/>
      </g>
     </g>
     <g id="text_5">
      <text style="font-size: 11px; font-family: 'Source Sans 3','Source Sans Pro','Helvetica Neue',Arial,sans-serif; text-anchor: middle; fill: #5d574d" x="220.882" y="207.758281" transform="rotate(-0 220.882 207.758281)">0.8</text>
     </g>
    </g>
    <g id="xtick_6">
     <g id="line2d_11">
      <path d="M 263.3175 192.4 
L 263.3175 12.612706 
" clip-path="url(#p2d91ed6732)" style="fill: none; stroke: #d9d0bf; stroke-width: 0.6; stroke-linecap: square"/>
     </g>
     <g id="line2d_12">
      <g>
       <use xlink:href="#mc7e1a49cba" x="263.3175" y="192.4" style="fill: #5d574d; stroke: #5d574d; stroke-width: 0.8"/>
      </g>
     </g>
     <g id="text_6">
      <text style="font-size: 11px; font-family: 'Source Sans 3','Source Sans Pro','Helvetica Neue',Arial,sans-serif; text-anchor: middle; fill: #5d574d" x="263.3175" y="207.758281" transform="rotate(-0 263.3175 207.758281)">1.0</text>
     </g>
    </g>
    <g id="text_7">
     <text style="font-size: 11px; font-family: 'Source Sans 3','Source Sans Pro','Helvetica Neue',Arial,sans-serif; text-anchor: middle; fill: #5d574d" x="157.22875" y="222.404219" transform="rotate(-0 157.22875 222.404219)">shell thickness ε</text>
    </g>
   </g>
   <g id="matplotlib.axis_2">
    <g id="ytick_1">
     <g id="line2d_13">
      <path d="M 51.14 192.4 
L 263.3175 192.4 
" clip-path="url(#p2d91ed6732)" style="fill: none; stroke: #d9d0bf; stroke-width: 0.6; stroke-linecap: square"/>
     </g>
     <g id="line2d_14">
      <defs>
       <path id="mdf3a957099" d="M 0 0 
L -3.5 0 
" style="stroke: #5d574d; stroke-width: 0.8"/>
      </defs>
      <g>
       <use xlink:href="#mdf3a957099" x="51.14" y="192.4" style="fill: #5d574d; stroke: #5d574d; stroke-width: 0.8"/>
      </g>
     </g>
     <g id="text_8">
      <text style="font-size: 11px; font-family: 'Source Sans 3','Source Sans Pro','Helvetica Neue',Arial,sans-serif; text-anchor: end; fill: #5d574d" x="44.14" y="196.579141" transform="rotate(-0 44.14 196.579141)">0.0</text>
     </g>
    </g>
    <g id="ytick_2">
     <g id="line2d_15">
      <path d="M 51.14 157.147589 
L 263.3175 157.147589 
" clip-path="url(#p2d91ed6732)" style="fill: none; stroke: #d9d0bf; stroke-width: 0.6; stroke-linecap: square"/>
     </g>
     <g id="line2d_16">
      <g>
       <use xlink:href="#mdf3a957099" x="51.14" y="157.147589" style="fill: #5d574d; stroke: #5d574d; stroke-width: 0.8"/>
      </g>
     </g>
     <g id="text_9">
      <text style="font-size: 11px; font-family: 'Source Sans 3','Source Sans Pro','Helvetica Neue',Arial,sans-serif; text-anchor: end; fill: #5d574d" x="44.14" y="161.32673" transform="rotate(-0 44.14 161.32673)">0.2</text>
     </g>
    </g>
    <g id="ytick_3">
     <g id="line2d_17">
      <path d="M 51.14 121.895179 
L 263.3175 121.895179 
" clip-path="url(#p2d91ed6732)" style="fill: none; stroke: #d9d0bf; stroke-width: 0.6; stroke-linecap: square"/>
     </g>
     <g id="line2d_18">
      <g>
       <use xlink:href="#mdf3a957099" x="51.14" y="121.895179" style="fill: #5d574d; stroke: #5d574d; stroke-width: 0.8"/>
      </g>
     </g>
     <g id="text_10">
      <text style="font-size: 11px; font-family: 'Source Sans 3','Source Sans Pro','Helvetica Neue',Arial,sans-serif; text-anchor: end; fill: #5d574d" x="44.14" y="126.074319" transform="rotate(-0 44.14 126.074319)">0.4</text>
     </g>
    </g>
    <g id="ytick_4">
     <g id="line2d_19">
      <path d="M 51.14 86.642768 
L 263.3175 86.642768 
" clip-path="url(#p2d91ed6732)" style="fill: none; stroke: #d9d0bf; stroke-width: 0.6; stroke-linecap: square"/>
     </g>
     <g id="line2d_20">
      <g>
       <use xlink:href="#mdf3a957099" x="51.14" y="86.642768" style="fill: #5d574d; stroke: #5d574d; stroke-width: 0.8"/>
      </g>
     </g>
     <g id="text_11">
      <text style="font-size: 11px; font-family: 'Source Sans 3','Source Sans Pro','Helvetica Neue',Arial,sans-serif; text-anchor: end; fill: #5d574d" x="44.14" y="90.821909" transform="rotate(-0 44.14 90.821909)">0.6</text>
     </g>
    </g>
    <g id="ytick_5">
     <g id="line2d_21">
      <path d="M 51.14 51.390358 
L 263.3175 51.390358 
" clip-path="url(#p2d91ed6732)" style="fill: none; stroke: #d9d0bf; stroke-width: 0.6; stroke-linecap: square"/>
     </g>
     <g id="line2d_22">
      <g>
       <use xlink:href="#mdf3a957099" x="51.14" y="51.390358" style="fill: #5d574d; stroke: #5d574d; stroke-width: 0.8"/>
      </g>
     </g>
     <g id="text_12">
      <text style="font-size: 11px; font-family: 'Source Sans 3','Source Sans Pro','Helvetica Neue',Arial,sans-serif; text-anchor: end; fill: #5d574d" x="44.14" y="55.569498" transform="rotate(-0 44.14 55.569498)">0.8</text>
     </g>
    </g>
    <g id="ytick_6">
     <g id="line2d_23">
      <path d="M 51.14 16.137947 
L 263.3175 16.137947 
" clip-path="url(#p2d91ed6732)" style="fill: none; stroke: #d9d0bf; stroke-width: 0.6; stroke-linecap: square"/>
     </g>
     <g id="line2d_24">
      <g>
       <use xlink:href="#mdf3a957099" x="51.14" y="16.137947" style="fill: #5d574d; stroke: #5d574d; stroke-width: 0.8"/>
      </g>
     </g>
     <g id="text_13">
      <text style="font-size: 11px; font-family: 'Source Sans 3','Source Sans Pro','Helvetica Neue',Arial,sans-serif; text-anchor: end; fill: #5d574d" x="44.14" y="20.317088" transform="rotate(-0 44.14 20.317088)">1.0</text>
     </g>
    </g>
    <g id="text_14">
     <text style="font-size: 11px; font-family: 'Source Sans 3','Source Sans Pro','Helvetica Neue',Arial,sans-serif; text-anchor: middle; fill: #5d574d" x="20.358906" y="102.506353" transform="rotate(-90 20.358906 102.506353)">fraction of volume in shell</text>
    </g>
   </g>
   <g id="line2d_25">
    <path d="M 51.14 192.4 
L 263.3175 16.137947 
L 263.3175 16.137947 
" clip-path="url(#p2d91ed6732)" style="fill: none; stroke: #5d574d; stroke-width: 1.8; stroke-linecap: square"/>
   </g>
   <g id="line2d_26">
    <path d="M 51.14 192.4 
L 58.566213 180.277577 
L 65.992425 168.586997 
L 73.418638 157.328258 
L 80.314406 147.26039 
L 87.210175 137.564875 
L 94.105944 128.241714 
L 101.001712 119.290907 
L 107.897481 110.712453 
L 114.79325 102.506353 
L 121.158575 95.261983 
L 127.5239 88.334884 
L 133.889225 81.725057 
L 140.25455 75.432502 
L 146.619875 69.457218 
L 152.9852 63.799206 
L 159.350525 58.458466 
L 165.185406 53.841502 
L 171.020287 49.491134 
L 176.855169 45.407362 
L 182.69005 41.590187 
L 188.524931 38.039609 
L 194.359812 34.755626 
L 200.194694 31.73824 
L 206.029575 28.987451 
L 211.864456 26.503257 
L 217.168894 24.476244 
L 222.473331 22.669558 
L 227.777769 21.083199 
L 233.082206 19.717168 
L 238.386644 18.571465 
L 243.691081 17.646089 
L 248.995519 16.941041 
L 254.299956 16.45632 
L 259.604394 16.191927 
L 263.3175 16.137947 
L 263.3175 16.137947 
" clip-path="url(#p2d91ed6732)" style="fill: none; stroke: #5b7055; stroke-width: 1.8; stroke-linecap: square"/>
   </g>
   <g id="line2d_27">
    <path d="M 51.14 192.4 
L 54.853106 177.507509 
L 58.566213 163.639092 
L 62.279319 150.741002 
L 65.992425 138.761407 
L 69.175088 129.186314 
L 72.35775 120.218927 
L 75.540413 111.829847 
L 78.723075 103.990642 
L 81.905738 96.673825 
L 85.0884 89.852843 
L 88.271062 83.502056 
L 91.453725 77.596725 
L 94.636388 72.112994 
L 97.81905 67.027875 
L 101.001712 62.319231 
L 104.184375 57.965758 
L 107.367037 53.946976 
L 110.5497 50.243202 
L 113.732362 46.835546 
L 117.445469 43.210071 
L 121.158575 39.935529 
L 124.871681 36.985803 
L 128.584788 34.336106 
L 132.297894 31.962944 
L 136.011 29.844084 
L 139.724106 27.958518 
L 143.967656 26.063883 
L 148.211206 24.420372 
L 152.454756 23.002153 
L 157.22875 21.646136 
L 162.002744 20.513427 
L 167.307181 19.481835 
L 173.142062 18.58196 
L 179.507387 17.832848 
L 186.403156 17.24126 
L 194.359812 16.777057 
L 204.438244 16.427998 
L 217.168894 16.223741 
L 238.386644 16.141895 
L 263.3175 16.137947 
L 263.3175 16.137947 
" clip-path="url(#p2d91ed6732)" style="fill: none; stroke: #8a6a3a; stroke-width: 1.8; stroke-linecap: square"/>
   </g>
   <g id="line2d_28">
    <path d="M 51.14 192.4 
L 52.731331 167.76236 
L 54.322663 146.419652 
L 55.913994 127.951422 
L 57.505325 111.988254 
L 59.096656 98.205897 
L 60.687988 86.32003 
L 62.279319 76.081599 
L 63.87065 67.272669 
L 65.461981 59.702738 
L 67.053313 53.205463 
L 68.644644 47.635751 
L 70.235975 42.867191 
L 71.827306 38.789764 
L 73.418638 35.307833 
L 75.009969 32.338359 
L 76.6013 29.809324 
L 78.192631 27.658346 
L 79.783963 25.831455 
L 81.375294 24.282015 
L 83.497069 22.578942 
L 85.618844 21.217847 
L 87.740619 20.132966 
L 89.862394 19.270613 
L 92.514612 18.439794 
L 95.697275 17.718105 
L 99.410381 17.147499 
L 103.653931 16.73538 
L 109.488812 16.421686 
L 117.975912 16.229142 
L 133.889225 16.146916 
L 223.534219 16.137947 
L 263.3175 16.137947 
L 263.3175 16.137947 
" clip-path="url(#p2d91ed6732)" style="fill: none; stroke: #9a4b3c; stroke-width: 1.8; stroke-linecap: square"/>
   </g>
   <g id="line2d_29">
    <path d="M 51.14 192.4 
L 51.670444 153.368009 
L 52.200888 122.912288 
L 52.731331 99.163231 
L 53.261775 80.655559 
L 53.792219 66.241584 
L 54.322663 55.022926 
L 54.853106 46.296794 
L 55.38355 39.513742 
L 55.913994 34.244485 
L 56.444438 30.153828 
L 56.974881 26.980207 
L 57.505325 24.51965 
L 58.035769 22.613192 
L 58.566213 21.137028 
L 59.6271 19.111544 
L 60.687988 17.901936 
L 61.748875 17.181512 
L 62.809763 16.753605 
L 64.401094 16.415462 
L 66.522869 16.232909 
L 70.766419 16.148682 
L 95.697275 16.137947 
L 263.3175 16.137947 
L 263.3175 16.137947 
" clip-path="url(#p2d91ed6732)" style="fill: none; stroke: #1f2e4a; stroke-width: 1.8; stroke-linecap: square"/>
   </g>
   <g id="patch_3">
    <path d="M 51.14 192.4 
L 51.14 12.612706 
" style="fill: none; stroke: #b9ad96; stroke-width: 0.8; stroke-linejoin: miter; stroke-linecap: square"/>
   </g>
   <g id="patch_4">
    <path d="M 51.14 192.4 
L 263.3175 192.4 
" style="fill: none; stroke: #b9ad96; stroke-width: 0.8; stroke-linejoin: miter; stroke-linecap: square"/>
   </g>
   <g id="legend_1">
    <g id="line2d_30">
     <path d="M 184.794062 119.107813 
L 194.794062 119.107813 
L 204.794062 119.107813 
" style="fill: none; stroke: #5d574d; stroke-width: 1.8; stroke-linecap: square"/>
    </g>
    <g id="text_15">
     <text style="font-size: 10px; font-family: 'Source Sans 3','Source Sans Pro','Helvetica Neue',Arial,sans-serif; text-anchor: start; fill: #1e1c19" x="212.794062" y="122.607813" transform="rotate(-0 212.794062 122.607813)">D = 1</text>
    </g>
    <g id="line2d_31">
     <path d="M 184.794062 133.785938 
L 194.794062 133.785938 
L 204.794062 133.785938 
" style="fill: none; stroke: #5b7055; stroke-width: 1.8; stroke-linecap: square"/>
    </g>
    <g id="text_16">
     <text style="font-size: 10px; font-family: 'Source Sans 3','Source Sans Pro','Helvetica Neue',Arial,sans-serif; text-anchor: start; fill: #1e1c19" x="212.794062" y="137.285938" transform="rotate(-0 212.794062 137.285938)">D = 2</text>
    </g>
    <g id="line2d_32">
     <path d="M 184.794062 148.464063 
L 194.794062 148.464063 
L 204.794062 148.464063 
" style="fill: none; stroke: #8a6a3a; stroke-width: 1.8; stroke-linecap: square"/>
    </g>
    <g id="text_17">
     <text style="font-size: 10px; font-family: 'Source Sans 3','Source Sans Pro','Helvetica Neue',Arial,sans-serif; text-anchor: start; fill: #1e1c19" x="212.794062" y="151.964063" transform="rotate(-0 212.794062 151.964063)">D = 5</text>
    </g>
    <g id="line2d_33">
     <path d="M 184.794062 163.142188 
L 194.794062 163.142188 
L 204.794062 163.142188 
" style="fill: none; stroke: #9a4b3c; stroke-width: 1.8; stroke-linecap: square"/>
    </g>
    <g id="text_18">
     <text style="font-size: 10px; font-family: 'Source Sans 3','Source Sans Pro','Helvetica Neue',Arial,sans-serif; text-anchor: start; fill: #1e1c19" x="212.794062" y="166.642188" transform="rotate(-0 212.794062 166.642188)">D = 20</text>
    </g>
    <g id="line2d_34">
     <path d="M 184.794062 177.820312 
L 194.794062 177.820312 
L 204.794062 177.820312 
" style="fill: none; stroke: #1f2e4a; stroke-width: 1.8; stroke-linecap: square"/>
    </g>
    <g id="text_19">
     <text style="font-size: 10px; font-family: 'Source Sans 3','Source Sans Pro','Helvetica Neue',Arial,sans-serif; text-anchor: start; fill: #1e1c19" x="212.794062" y="181.320312" transform="rotate(-0 212.794062 181.320312)">D = 100</text>
    </g>
   </g>
  </g>
  <g id="axes_2">
   <g id="patch_5">
    <path d="M 323.1425 192.4 
L 535.32 192.4 
L 535.32 12.612706 
L 323.1425 12.612706 
L 323.1425 192.4 
z
" style="fill: none"/>
   </g>
   <g id="matplotlib.axis_3">
    <g id="xtick_7">
     <g id="line2d_35">
      <path d="M 323.1425 192.4 
L 323.1425 12.612706 
" clip-path="url(#p701d54144e)" style="fill: none; stroke: #d9d0bf; stroke-width: 0.6; stroke-linecap: square"/>
     </g>
     <g id="line2d_36">
      <g>
       <use xlink:href="#mc7e1a49cba" x="323.1425" y="192.4" style="fill: #5d574d; stroke: #5d574d; stroke-width: 0.8"/>
      </g>
     </g>
     <g id="text_20">
      <text style="font-size: 11px; font-family: 'Source Sans 3','Source Sans Pro','Helvetica Neue',Arial,sans-serif; text-anchor: middle; fill: #5d574d" x="323.1425" y="207.758281" transform="rotate(-0 323.1425 207.758281)">0</text>
     </g>
    </g>
    <g id="xtick_8">
     <g id="line2d_37">
      <path d="M 370.293056 192.4 
L 370.293056 12.612706 
" clip-path="url(#p701d54144e)" style="fill: none; stroke: #d9d0bf; stroke-width: 0.6; stroke-linecap: square"/>
     </g>
     <g id="line2d_38">
      <g>
       <use xlink:href="#mc7e1a49cba" x="370.293056" y="192.4" style="fill: #5d574d; stroke: #5d574d; stroke-width: 0.8"/>
      </g>
     </g>
     <g id="text_21">
      <text style="font-size: 11px; font-family: 'Source Sans 3','Source Sans Pro','Helvetica Neue',Arial,sans-serif; text-anchor: middle; fill: #5d574d" x="370.293056" y="207.758281" transform="rotate(-0 370.293056 207.758281)">2</text>
     </g>
    </g>
    <g id="xtick_9">
     <g id="line2d_39">
      <path d="M 417.443611 192.4 
L 417.443611 12.612706 
" clip-path="url(#p701d54144e)" style="fill: none; stroke: #d9d0bf; stroke-width: 0.6; stroke-linecap: square"/>
     </g>
     <g id="line2d_40">
      <g>
       <use xlink:href="#mc7e1a49cba" x="417.443611" y="192.4" style="fill: #5d574d; stroke: #5d574d; stroke-width: 0.8"/>
      </g>
     </g>
     <g id="text_22">
      <text style="font-size: 11px; font-family: 'Source Sans 3','Source Sans Pro','Helvetica Neue',Arial,sans-serif; text-anchor: middle; fill: #5d574d" x="417.443611" y="207.758281" transform="rotate(-0 417.443611 207.758281)">4</text>
     </g>
    </g>
    <g id="xtick_10">
     <g id="line2d_41">
      <path d="M 464.594167 192.4 
L 464.594167 12.612706 
" clip-path="url(#p701d54144e)" style="fill: none; stroke: #d9d0bf; stroke-width: 0.6; stroke-linecap: square"/>
     </g>
     <g id="line2d_42">
      <g>
       <use xlink:href="#mc7e1a49cba" x="464.594167" y="192.4" style="fill: #5d574d; stroke: #5d574d; stroke-width: 0.8"/>
      </g>
     </g>
     <g id="text_23">
      <text style="font-size: 11px; font-family: 'Source Sans 3','Source Sans Pro','Helvetica Neue',Arial,sans-serif; text-anchor: middle; fill: #5d574d" x="464.594167" y="207.758281" transform="rotate(-0 464.594167 207.758281)">6</text>
     </g>
    </g>
    <g id="xtick_11">
     <g id="line2d_43">
      <path d="M 511.744722 192.4 
L 511.744722 12.612706 
" clip-path="url(#p701d54144e)" style="fill: none; stroke: #d9d0bf; stroke-width: 0.6; stroke-linecap: square"/>
     </g>
     <g id="line2d_44">
      <g>
       <use xlink:href="#mc7e1a49cba" x="511.744722" y="192.4" style="fill: #5d574d; stroke: #5d574d; stroke-width: 0.8"/>
      </g>
     </g>
     <g id="text_24">
      <text style="font-size: 11px; font-family: 'Source Sans 3','Source Sans Pro','Helvetica Neue',Arial,sans-serif; text-anchor: middle; fill: #5d574d" x="511.744722" y="207.758281" transform="rotate(-0 511.744722 207.758281)">8</text>
     </g>
    </g>
    <g id="text_25">
     <text style="font-size: 11px; font-family: 'Source Sans 3','Source Sans Pro','Helvetica Neue',Arial,sans-serif; text-anchor: middle; fill: #5d574d" x="429.23125" y="222.452344" transform="rotate(-0 429.23125 222.452344)">radius r = ‖x‖</text>
    </g>
   </g>
   <g id="matplotlib.axis_4">
    <g id="ytick_7">
     <g id="line2d_45">
      <path d="M 323.1425 192.4 
L 535.32 192.4 
" clip-path="url(#p701d54144e)" style="fill: none; stroke: #d9d0bf; stroke-width: 0.6; stroke-linecap: square"/>
     </g>
     <g id="line2d_46">
      <g>
       <use xlink:href="#mdf3a957099" x="323.1425" y="192.4" style="fill: #5d574d; stroke: #5d574d; stroke-width: 0.8"/>
      </g>
     </g>
     <g id="text_26">
      <text style="font-size: 11px; font-family: 'Source Sans 3','Source Sans Pro','Helvetica Neue',Arial,sans-serif; text-anchor: end; fill: #5d574d" x="316.1425" y="196.579141" transform="rotate(-0 316.1425 196.579141)">0.0</text>
     </g>
    </g>
    <g id="ytick_8">
     <g id="line2d_47">
      <path d="M 323.1425 150.097107 
L 535.32 150.097107 
" clip-path="url(#p701d54144e)" style="fill: none; stroke: #d9d0bf; stroke-width: 0.6; stroke-linecap: square"/>
     </g>
     <g id="line2d_48">
      <g>
       <use xlink:href="#mdf3a957099" x="323.1425" y="150.097107" style="fill: #5d574d; stroke: #5d574d; stroke-width: 0.8"/>
      </g>
     </g>
     <g id="text_27">
      <text style="font-size: 11px; font-family: 'Source Sans 3','Source Sans Pro','Helvetica Neue',Arial,sans-serif; text-anchor: end; fill: #5d574d" x="316.1425" y="154.276248" transform="rotate(-0 316.1425 154.276248)">0.2</text>
     </g>
    </g>
    <g id="ytick_9">
     <g id="line2d_49">
      <path d="M 323.1425 107.794215 
L 535.32 107.794215 
" clip-path="url(#p701d54144e)" style="fill: none; stroke: #d9d0bf; stroke-width: 0.6; stroke-linecap: square"/>
     </g>
     <g id="line2d_50">
      <g>
       <use xlink:href="#mdf3a957099" x="323.1425" y="107.794215" style="fill: #5d574d; stroke: #5d574d; stroke-width: 0.8"/>
      </g>
     </g>
     <g id="text_28">
      <text style="font-size: 11px; font-family: 'Source Sans 3','Source Sans Pro','Helvetica Neue',Arial,sans-serif; text-anchor: end; fill: #5d574d" x="316.1425" y="111.973355" transform="rotate(-0 316.1425 111.973355)">0.4</text>
     </g>
    </g>
    <g id="ytick_10">
     <g id="line2d_51">
      <path d="M 323.1425 65.491322 
L 535.32 65.491322 
" clip-path="url(#p701d54144e)" style="fill: none; stroke: #d9d0bf; stroke-width: 0.6; stroke-linecap: square"/>
     </g>
     <g id="line2d_52">
      <g>
       <use xlink:href="#mdf3a957099" x="323.1425" y="65.491322" style="fill: #5d574d; stroke: #5d574d; stroke-width: 0.8"/>
      </g>
     </g>
     <g id="text_29">
      <text style="font-size: 11px; font-family: 'Source Sans 3','Source Sans Pro','Helvetica Neue',Arial,sans-serif; text-anchor: end; fill: #5d574d" x="316.1425" y="69.670462" transform="rotate(-0 316.1425 69.670462)">0.6</text>
     </g>
    </g>
    <g id="ytick_11">
     <g id="line2d_53">
      <path d="M 323.1425 23.188429 
L 535.32 23.188429 
" clip-path="url(#p701d54144e)" style="fill: none; stroke: #d9d0bf; stroke-width: 0.6; stroke-linecap: square"/>
     </g>
     <g id="line2d_54">
      <g>
       <use xlink:href="#mdf3a957099" x="323.1425" y="23.188429" style="fill: #5d574d; stroke: #5d574d; stroke-width: 0.8"/>
      </g>
     </g>
     <g id="text_30">
      <text style="font-size: 11px; font-family: 'Source Sans 3','Source Sans Pro','Helvetica Neue',Arial,sans-serif; text-anchor: end; fill: #5d574d" x="316.1425" y="27.36757" transform="rotate(-0 316.1425 27.36757)">0.8</text>
     </g>
    </g>
    <g id="text_31">
     <text style="font-size: 11px; font-family: 'Source Sans 3','Source Sans Pro','Helvetica Neue',Arial,sans-serif; text-anchor: middle; fill: #5d574d" x="292.361406" y="102.506353" transform="rotate(-90 292.361406 102.506353)">p(r)</text>
    </g>
   </g>
   <g id="line2d_55">
    <path d="M 323.144858 23.635876 
L 324.088907 23.771806 
L 325.032957 24.177591 
L 325.977006 24.851285 
L 326.921056 25.789659 
L 328.101118 27.32789 
L 329.28118 29.261177 
L 330.697254 32.08235 
L 332.113329 35.422124 
L 333.765415 39.927561 
L 335.653514 45.802687 
L 337.777626 53.21327 
L 340.373762 63.1961 
L 343.677936 76.91612 
L 354.534506 122.85529 
L 357.366655 133.561861 
L 359.962791 142.557679 
L 362.322915 149.985103 
L 364.683039 156.665636 
L 366.80715 162.034843 
L 368.931262 166.805923 
L 371.055374 171.001769 
L 372.943473 174.274218 
L 374.831572 177.144375 
L 376.719671 179.642145 
L 378.60777 181.799174 
L 380.495869 183.647822 
L 382.619981 185.399002 
L 384.744092 186.845075 
L 386.868204 188.028093 
L 389.228328 189.081266 
L 391.824464 189.977427 
L 394.656613 190.705084 
L 397.960787 191.302909 
L 401.736985 191.748514 
L 406.457233 192.072423 
L 413.06558 192.28304 
L 424.394175 192.383332 
L 467.112418 192.399999 
L 535.32 192.4 
L 535.32 192.4 
" clip-path="url(#p701d54144e)" style="fill: none; stroke: #5d574d; stroke-width: 1.8; stroke-linecap: square"/>
   </g>
   <g id="line2d_56">
    <path d="M 323.144858 192.378849 
L 328.101118 148.885153 
L 330.697254 128.012021 
L 332.821366 112.580869 
L 334.709465 100.391189 
L 336.361552 91.052798 
L 338.013638 83.048584 
L 339.429713 77.296536 
L 340.609775 73.302029 
L 341.789837 70.038307 
L 342.733886 67.95142 
L 343.677936 66.325164 
L 344.621985 65.151795 
L 345.330023 64.562852 
L 346.03806 64.217639 
L 346.746097 64.110178 
L 347.454134 64.233817 
L 348.162171 64.581281 
L 348.870209 65.144723 
L 349.814258 66.217412 
L 350.758308 67.638029 
L 351.93837 69.86893 
L 353.118432 72.562667 
L 354.534506 76.339006 
L 356.186593 81.388052 
L 358.310704 88.690698 
L 360.906841 98.476634 
L 371.527398 139.563785 
L 374.123535 148.258891 
L 376.483659 155.391447 
L 378.60777 161.141801 
L 380.731882 166.250532 
L 382.619981 170.26316 
L 384.50808 173.798631 
L 386.396179 176.884089 
L 388.284278 179.55196 
L 390.172378 181.838007 
L 392.060477 183.779657 
L 393.948576 185.414596 
L 395.836675 186.779642 
L 397.960787 188.036312 
L 400.084898 189.0421 
L 402.445022 189.916201 
L 405.041158 190.639649 
L 408.109319 191.247751 
L 411.649505 191.709227 
L 416.133741 192.051005 
L 422.270063 192.271182 
L 432.418596 192.378817 
L 466.404381 192.399988 
L 535.32 192.4 
L 535.32 192.4 
" clip-path="url(#p701d54144e)" style="fill: none; stroke: #5b7055; stroke-width: 1.8; stroke-linecap: square"/>
   </g>
   <g id="line2d_57">
    <path d="M 346.717778 192.4 
L 346.717778 12.612706 
" clip-path="url(#p701d54144e)" style="fill: none; stroke-dasharray: 0.8,1.32; stroke-dashoffset: 0; stroke: #5b7055; stroke-width: 0.8"/>
   </g>
   <g id="line2d_58">
    <path d="M 323.144858 192.4 
L 343.677936 192.291189 
L 346.982109 192.034787 
L 349.342233 191.631959 
L 351.230332 191.089823 
L 352.882419 190.389065 
L 354.298494 189.571713 
L 355.714568 188.509558 
L 357.130642 187.157808 
L 358.546717 185.471022 
L 359.962791 183.405013 
L 361.378865 180.919008 
L 362.79494 177.977959 
L 364.211014 174.5549 
L 365.863101 169.930614 
L 367.515188 164.623286 
L 369.403287 157.750396 
L 371.527398 149.086369 
L 374.123535 137.429887 
L 379.315807 112.62908 
L 382.147956 99.790118 
L 384.272068 91.197456 
L 385.924154 85.385209 
L 387.340229 81.131106 
L 388.520291 78.157284 
L 389.700353 75.740126 
L 390.644402 74.225009 
L 391.588452 73.092248 
L 392.532501 72.347362 
L 393.240539 72.04446 
L 393.948576 71.960224 
L 394.656613 72.092913 
L 395.36465 72.439684 
L 396.072687 72.996631 
L 397.016737 74.057521 
L 397.960787 75.468915 
L 399.140848 77.69986 
L 400.32091 80.413083 
L 401.736985 84.243891 
L 403.389072 89.400704 
L 405.277171 96.028224 
L 407.873307 106.036362 
L 417.549815 144.342382 
L 419.909939 152.40613 
L 422.034051 158.942892 
L 424.158162 164.752611 
L 426.046261 169.300077 
L 427.934361 173.280998 
L 429.82246 176.722918 
L 431.710559 179.663354 
L 433.598658 182.146386 
L 435.486757 184.219667 
L 437.374856 185.931922 
L 439.262956 187.330957 
L 441.151055 188.462165 
L 443.275166 189.466701 
L 445.63529 190.312255 
L 448.231427 190.98574 
L 451.063575 191.492014 
L 454.603761 191.891819 
L 459.087997 192.166315 
L 465.696344 192.331592 
L 479.14905 192.395847 
L 535.32 192.4 
L 535.32 192.4 
" clip-path="url(#p701d54144e)" style="fill: none; stroke: #8a6a3a; stroke-width: 1.8; stroke-linecap: square"/>
   </g>
   <g id="line2d_59">
    <path d="M 393.868333 192.4 
L 393.868333 12.612706 
" clip-path="url(#p701d54144e)" style="fill: none; stroke-dasharray: 0.8,1.32; stroke-dashoffset: 0; stroke: #8a6a3a; stroke-width: 0.8"/>
   </g>
   <g id="line2d_60">
    <path d="M 323.144858 192.4 
L 430.294485 192.289915 
L 435.014732 192.040922 
L 438.082894 191.677111 
L 440.67903 191.145189 
L 442.803141 190.481876 
L 444.691241 189.657795 
L 446.343327 188.706677 
L 447.995414 187.493465 
L 449.647501 185.969077 
L 451.063575 184.3759 
L 452.47965 182.483817 
L 453.895724 180.261231 
L 455.547811 177.211613 
L 457.199897 173.632667 
L 458.851984 169.495094 
L 460.504071 164.783554 
L 462.39217 158.699545 
L 464.516282 151.008531 
L 466.876406 141.544048 
L 469.944567 128.198696 
L 476.316901 100.152869 
L 478.441013 91.931495 
L 480.0931 86.310571 
L 481.509174 82.154542 
L 482.925248 78.694662 
L 484.10531 76.391646 
L 485.04936 74.951303 
L 485.99341 73.881205 
L 486.937459 73.189448 
L 487.645496 72.921731 
L 488.353534 72.869926 
L 489.061571 73.033387 
L 489.769608 73.41032 
L 490.477645 73.997804 
L 491.421695 75.101558 
L 492.365744 76.559994 
L 493.545806 78.857968 
L 494.725868 81.649409 
L 496.141943 85.590591 
L 497.794029 90.899236 
L 499.682128 97.727229 
L 502.278265 108.04192 
L 511.482748 145.529261 
L 513.842872 153.81645 
L 515.966984 160.496245 
L 517.855083 165.772812 
L 519.743182 170.420281 
L 521.631281 174.453881 
L 523.283368 177.504351 
L 524.935455 180.137881 
L 526.587541 182.388193 
L 528.239628 184.291821 
L 529.891715 185.886407 
L 531.779814 187.37822 
L 533.667913 188.568523 
L 535.32 189.401729 
L 535.32 189.401729 
" clip-path="url(#p701d54144e)" style="fill: none; stroke: #1f2e4a; stroke-width: 1.8; stroke-linecap: square"/>
   </g>
   <g id="line2d_61">
    <path d="M 488.169444 192.4 
L 488.169444 12.612706 
" clip-path="url(#p701d54144e)" style="fill: none; stroke-dasharray: 0.8,1.32; stroke-dashoffset: 0; stroke: #1f2e4a; stroke-width: 0.8"/>
   </g>
   <g id="patch_6">
    <path d="M 323.1425 192.4 
L 323.1425 12.612706 
" style="fill: none; stroke: #b9ad96; stroke-width: 0.8; stroke-linejoin: miter; stroke-linecap: square"/>
   </g>
   <g id="patch_7">
    <path d="M 323.1425 192.4 
L 535.32 192.4 
" style="fill: none; stroke: #b9ad96; stroke-width: 0.8; stroke-linejoin: miter; stroke-linecap: square"/>
   </g>
   <g id="legend_2">
    <g id="line2d_62">
     <path d="M 463.159062 25.711143 
L 473.159062 25.711143 
L 483.159062 25.711143 
" style="fill: none; stroke: #5d574d; stroke-width: 1.8; stroke-linecap: square"/>
    </g>
    <g id="text_32">
     <text style="font-size: 10px; font-family: 'Source Sans 3','Source Sans Pro','Helvetica Neue',Arial,sans-serif; text-anchor: start; fill: #1e1c19" x="491.159062" y="29.211143" transform="rotate(-0 491.159062 29.211143)">D = 1</text>
    </g>
    <g id="line2d_63">
     <path d="M 463.159062 40.389268 
L 473.159062 40.389268 
L 483.159062 40.389268 
" style="fill: none; stroke: #5b7055; stroke-width: 1.8; stroke-linecap: square"/>
    </g>
    <g id="text_33">
     <text style="font-size: 10px; font-family: 'Source Sans 3','Source Sans Pro','Helvetica Neue',Arial,sans-serif; text-anchor: start; fill: #1e1c19" x="491.159062" y="43.889268" transform="rotate(-0 491.159062 43.889268)">D = 2</text>
    </g>
    <g id="line2d_64">
     <path d="M 463.159062 55.067393 
L 473.159062 55.067393 
L 483.159062 55.067393 
" style="fill: none; stroke: #8a6a3a; stroke-width: 1.8; stroke-linecap: square"/>
    </g>
    <g id="text_34">
     <text style="font-size: 10px; font-family: 'Source Sans 3','Source Sans Pro','Helvetica Neue',Arial,sans-serif; text-anchor: start; fill: #1e1c19" x="491.159062" y="58.567393" transform="rotate(-0 491.159062 58.567393)">D = 10</text>
    </g>
    <g id="line2d_65">
     <path d="M 463.159062 69.745518 
L 473.159062 69.745518 
L 483.159062 69.745518 
" style="fill: none; stroke: #1f2e4a; stroke-width: 1.8; stroke-linecap: square"/>
    </g>
    <g id="text_35">
     <text style="font-size: 10px; font-family: 'Source Sans 3','Source Sans Pro','Helvetica Neue',Arial,sans-serif; text-anchor: start; fill: #1e1c19" x="491.159062" y="73.245518" transform="rotate(-0 491.159062 73.245518)">D = 50</text>
    </g>
   </g>
  </g>
 </g>
 <defs>
  <clipPath id="p2d91ed6732">
   <rect x="51.14" y="12.612706" width="212.1775" height="179.787294"/>
  </clipPath>
  <clipPath id="p701d54144e">
   <rect x="323.1425" y="12.612706" width="212.1775" height="179.787294"/>
  </clipPath>
 </defs>
</svg>
