<svg xmlns="http://www.w3.org/2000/svg" viewBox="0 0 760 330" font-family="'Source Sans 3','Source Sans Pro','Helvetica Neue',Arial,sans-serif" font-size="15" fill="#1e1c19">
  <defs>
    <marker id="an" viewBox="0 0 10 10" refX="9" refY="5" markerWidth="7" markerHeight="7" orient="auto"><path d="M0,1 L9,5 L0,9 z" fill="#1f2e4a"/></marker>
    <marker id="ab" viewBox="0 0 10 10" refX="9" refY="5" markerWidth="7" markerHeight="7" orient="auto"><path d="M0,1 L9,5 L0,9 z" fill="#8a6a3a"/></marker>
    <marker id="am" viewBox="0 0 10 10" refX="9" refY="5" markerWidth="7" markerHeight="7" orient="auto"><path d="M0,1 L9,5 L0,9 z" fill="#b9ad96"/></marker>
    <marker id="at" viewBox="0 0 10 10" refX="9" refY="5" markerWidth="7" markerHeight="7" orient="auto"><path d="M0,1 L9,5 L0,9 z" fill="#5d574d"/></marker>
  </defs>
  <line x1="93.0" y1="90.0" x2="196.0" y2="90.0" stroke="#b9ad96" stroke-width="1.2" marker-end="url(#am)"/>
  <line x1="85.2" y1="242.8" x2="204.1" y2="108.0" stroke="#b9ad96" stroke-width="1.2" marker-end="url(#am)"/>
  <line x1="85.2" y1="107.2" x2="204.1" y2="242.0" stroke="#b9ad96" stroke-width="1.2" marker-end="url(#am)"/>
  <line x1="93.0" y1="260.0" x2="196.0" y2="260.0" stroke="#b9ad96" stroke-width="1.2" marker-end="url(#am)"/>
  <line x1="92.2" y1="96.1" x2="356.9" y2="168.7" stroke="#1f2e4a" stroke-width="1.8" marker-end="url(#an)"/>
  <line x1="240.3" y1="100.8" x2="358.8" y2="163.7" stroke="#1f2e4a" stroke-width="1.8" marker-end="url(#an)"/>
  <line x1="240.3" y1="249.2" x2="358.8" y2="186.3" stroke="#1f2e4a" stroke-width="1.8" marker-end="url(#an)"/>
  <line x1="243.0" y1="88.5" x2="511.0" y2="71.5" stroke="#b9ad96" stroke-width="1.2" marker-end="url(#am)"/>
  <line x1="399.0" y1="162.1" x2="515.1" y2="83.5" stroke="#b9ad96" stroke-width="1.2" marker-end="url(#am)"/>
  <line x1="403.0" y1="173.9" x2="666.0" y2="161.2" stroke="#b9ad96" stroke-width="1.2" marker-end="url(#am)"/>
  <line x1="554.9" y1="81.5" x2="669.2" y2="147.9" stroke="#b9ad96" stroke-width="1.2" marker-end="url(#am)"/>
  <line x1="243.0" y1="261.0" x2="666.0" y2="279.0" stroke="#b9ad96" stroke-width="1.2" marker-end="url(#am)"/>
  <line x1="401.8" y1="182.4" x2="667.3" y2="272.3" stroke="#b9ad96" stroke-width="1.2" marker-end="url(#am)"/>
  <line x1="509.8" y1="77.4" x2="397.0" y2="153.8" stroke="#8a6a3a" stroke-width="1.8" marker-end="url(#ab)"/>
  <text x="444.0" y="107.6" text-anchor="middle" font-size="15" fill="#8a6a3a" font-style="italic">δ<tspan font-size="10.5" dy="4" font-style="normal">6</tspan></text>
  <line x1="664.6" y1="153.2" x2="405.6" y2="165.8" stroke="#8a6a3a" stroke-width="1.8" marker-end="url(#ab)"/>
  <text x="533.8" y="148.5" text-anchor="middle" font-size="15" fill="#8a6a3a" font-style="italic">δ<tspan font-size="10.5" dy="4" font-style="normal">7</tspan></text>
  <line x1="668.9" y1="264.4" x2="407.2" y2="175.8" stroke="#8a6a3a" stroke-width="1.8" marker-end="url(#ab)"/>
  <text x="542.7" y="209.8" text-anchor="middle" font-size="15" fill="#8a6a3a" font-style="italic">δ<tspan font-size="10.5" dy="4" font-style="normal">8</tspan></text>
  <circle cx="70" cy="90" r="21" fill="#fbf8f2" stroke="#b9ad96" stroke-width="1.5"/>
  <text x="69.0" y="95.0" text-anchor="middle" font-size="15" fill="#5d574d" font-style="italic">x<tspan font-size="10.5" dy="4" font-style="normal">1</tspan></text>
  <circle cx="70" cy="260" r="21" fill="#fbf8f2" stroke="#b9ad96" stroke-width="1.5"/>
  <text x="69.0" y="265.0" text-anchor="middle" font-size="15" fill="#5d574d" font-style="italic">x<tspan font-size="10.5" dy="4" font-style="normal">2</tspan></text>
  <circle cx="220" cy="90" r="21" fill="#fbf8f2" stroke="#1f2e4a" stroke-width="1.5"/>
  <text x="220.0" y="95.0" text-anchor="middle" font-size="15" fill="#1e1c19">3</text>
  <circle cx="220" cy="260" r="21" fill="#fbf8f2" stroke="#1f2e4a" stroke-width="1.5"/>
  <text x="220.0" y="265.0" text-anchor="middle" font-size="15" fill="#1e1c19">4</text>
  <circle cx="380" cy="175" r="21" fill="#d5d9e0" stroke="#1f2e4a" stroke-width="2.0"/>
  <text x="380.0" y="180.0" text-anchor="middle" font-size="15" fill="#1e1c19">5</text>
  <circle cx="535" cy="70" r="21" fill="#fbf8f2" stroke="#1f2e4a" stroke-width="1.5"/>
  <text x="535.0" y="75.0" text-anchor="middle" font-size="15" fill="#1e1c19">6</text>
  <circle cx="690" cy="160" r="21" fill="#fbf8f2" stroke="#1f2e4a" stroke-width="1.5"/>
  <text x="690.0" y="165.0" text-anchor="middle" font-size="15" fill="#1e1c19">7</text>
  <circle cx="690" cy="280" r="21" fill="#fbf8f2" stroke="#1f2e4a" stroke-width="1.5"/>
  <text x="690.0" y="285.0" text-anchor="middle" font-size="15" fill="#1e1c19">8</text>
  <text x="150.0" y="124.0" text-anchor="middle" font-size="14" fill="#1f2e4a" font-style="italic">w<tspan font-size="9.8" dy="4" font-style="normal">51</tspan></text>
  <text x="305.0" y="118.0" text-anchor="middle" font-size="14" fill="#1f2e4a" font-style="italic">w<tspan font-size="9.8" dy="4" font-style="normal">53</tspan></text>
  <text x="310.0" y="235.0" text-anchor="middle" font-size="14" fill="#1f2e4a" font-style="italic">w<tspan font-size="9.8" dy="4" font-style="normal">54</tspan></text>
  <text x="70.0" y="30.0" text-anchor="middle" font-size="11" fill="#8a6a3a" letter-spacing="1.5">INPUTS</text>
  <text x="690.0" y="30.0" text-anchor="middle" font-size="11" fill="#8a6a3a" letter-spacing="1.5">OUTPUTS</text>
  <text x="380.0" y="30.0" text-anchor="middle" font-size="11" fill="#8a6a3a" letter-spacing="1.5">HIDDEN UNITS</text>
</svg>
