<svg xmlns="http://www.w3.org/2000/svg" viewBox="0 0 760 310" font-family="'Source Sans 3','Source Sans Pro','Helvetica Neue',Arial,sans-serif" font-size="15" fill="#1e1c19">
  <text x="24.0" y="24.0" text-anchor="start" font-size="14" fill="#5d574d">(a)</text>
  <text x="270.0" y="24.0" text-anchor="start" font-size="14" fill="#5d574d">(b)</text>
  <circle cx="130" cy="80" r="19" fill="#fbf8f2" stroke="#b9ad96" stroke-width="1.6"/>
  <text x="130.0" y="85.3" text-anchor="middle" font-size="16" fill="#1e1c19" font-weight="bold">w</text>
  <circle cx="55" cy="200" r="19" fill="#fbf8f2" stroke="#b9ad96" stroke-width="1.6"/>
  <text x="55.0" y="205.3" text-anchor="middle" font-size="16" fill="#1e1c19" font-style="italic">t<tspan font-size="10.9" dy="4.5" font-weight="normal" font-style="italic">1</tspan></text>
  <polygon points="65.6,183.0 67.2,173.4 73.6,177.4" fill="#1f2e4a"/>
  <line x1="119.9" y1="96.1" x2="69.6" y2="176.7" stroke="#1f2e4a" stroke-width="1.4"/>
  <circle cx="115" cy="200" r="19" fill="#fbf8f2" stroke="#b9ad96" stroke-width="1.6"/>
  <text x="115.0" y="205.3" text-anchor="middle" font-size="16" fill="#1e1c19" font-style="italic">t<tspan font-size="10.9" dy="4.5" font-weight="normal" font-style="italic">2</tspan></text>
  <polygon points="117.5,180.2 114.8,170.8 122.3,171.7" fill="#1f2e4a"/>
  <line x1="127.6" y1="98.9" x2="118.4" y2="172.7" stroke="#1f2e4a" stroke-width="1.4"/>
  <circle cx="215" cy="200" r="19" fill="#fbf8f2" stroke="#b9ad96" stroke-width="1.6"/>
  <text x="215.0" y="205.3" text-anchor="middle" font-size="16" fill="#1e1c19" font-style="italic">t<tspan font-size="10.9" dy="4.5" font-weight="normal" font-style="italic">N</tspan></text>
  <polygon points="203.4,183.7 195.2,178.5 201.3,174.2" fill="#1f2e4a"/>
  <line x1="141.0" y1="95.5" x2="199.1" y2="177.6" stroke="#1f2e4a" stroke-width="1.4"/>
  <text x="165.0" y="205.0" text-anchor="middle" font-size="18" fill="#1e1c19">···</text>
  <circle cx="360" cy="60" r="4.5" fill="#1e1c19"/>
  <text x="372.0" y="65.3" text-anchor="start" font-size="16" fill="#1e1c19" font-style="italic">λ</text>
  <circle cx="360" cy="160" r="19" fill="#fbf8f2" stroke="#b9ad96" stroke-width="1.6"/>
  <text x="360.0" y="165.3" text-anchor="middle" font-size="16" fill="#1e1c19" font-weight="bold">w</text>
  <rect x="475" y="55" width="170" height="175" rx="8" fill="none" stroke="#b9ad96" stroke-width="1.3"/>
  <text x="631.0" y="220.9" text-anchor="middle" font-size="15" fill="#5d574d" font-style="italic">N</text>
  <circle cx="560" cy="95" r="4.5" fill="#1e1c19"/>
  <text x="572.0" y="100.3" text-anchor="start" font-size="16" fill="#1e1c19" font-weight="bold">x<tspan font-size="10.9" dy="4.5" font-weight="normal" font-style="italic">n</tspan></text>
  <circle cx="560" cy="185" r="19" fill="#d5d9e0" stroke="#b9ad96" stroke-width="1.6"/>
  <text x="560.0" y="190.3" text-anchor="middle" font-size="16" fill="#1e1c19" font-style="italic">t<tspan font-size="10.9" dy="4.5" font-weight="normal" font-style="italic">n</tspan></text>
  <circle cx="440" cy="275" r="4.5" fill="#1e1c19"/>
  <text x="452.0" y="280.3" text-anchor="start" font-size="16" fill="#1e1c19" font-weight="bold">x̂</text>
  <circle cx="360" cy="275" r="19" fill="#fbf8f2" stroke="#b9ad96" stroke-width="1.6"/>
  <text x="360.0" y="280.3" text-anchor="middle" font-size="16" fill="#1e1c19" font-style="italic">t̂</text>
  <polygon points="360.0,140.0 356.2,131.0 363.8,131.0" fill="#1f2e4a"/>
  <line x1="360.0" y1="66.5" x2="360.0" y2="132.5" stroke="#1f2e4a" stroke-width="1.4"/>
  <polygon points="540.2,182.5 530.8,185.2 531.7,177.7" fill="#1f2e4a"/>
  <line x1="378.9" y1="162.4" x2="532.7" y2="181.6" stroke="#1f2e4a" stroke-width="1.4"/>
  <polygon points="560.0,165.0 556.2,156.0 563.8,156.0" fill="#1f2e4a"/>
  <line x1="560.0" y1="101.5" x2="560.0" y2="157.5" stroke="#1f2e4a" stroke-width="1.4"/>
  <polygon points="360.0,255.0 356.2,246.0 363.8,246.0" fill="#1f2e4a"/>
  <line x1="360.0" y1="179.0" x2="360.0" y2="247.5" stroke="#1f2e4a" stroke-width="1.4"/>
  <polygon points="380.0,275.0 389.0,271.2 389.0,278.8" fill="#1f2e4a"/>
  <line x1="433.5" y1="275.0" x2="387.5" y2="275.0" stroke="#1f2e4a" stroke-width="1.4"/>
  <circle cx="690" cy="90" r="11" fill="#fbf8f2" stroke="#b9ad96" stroke-width="1.6"/>
  <text x="690.0" y="118.0" text-anchor="middle" font-size="12.5" fill="#5d574d">latent</text>
  <circle cx="690" cy="160" r="11" fill="#d5d9e0" stroke="#b9ad96" stroke-width="1.6"/>
  <text x="690.0" y="188.0" text-anchor="middle" font-size="12.5" fill="#5d574d">observed</text>
  <circle cx="690" cy="230" r="4.5" fill="#1e1c19"/>
  <text x="690.0" y="252.0" text-anchor="middle" font-size="12.5" fill="#5d574d">fixed</text>
</svg>
